/* XPM */
static char * art_mark_xpm[] = {
"18 16 54 1",
" 	c None",
".	c #000000",
"+	c #636E61",
"@	c #647260",
"#	c #495745",
"$	c #3F4F39",
"%	c #354430",
"&	c #030303",
"*	c #FFE8B7",
"=	c #A7BCA4",
"-	c #ACC7AA",
";	c #73946B",
">	c #5D7A52",
",	c #4C6543",
"'	c #FEE7B7",
")	c #A8BCA4",
"!	c #A9C6A6",
"~	c #72956A",
"{	c #5B7950",
"]	c #4A6341",
"^	c #FEE8B7",
"/	c #050505",
"(	c #A9BDA5",
"_	c #E5D1A7",
":	c #A6997F",
"<	c #A2967B",
"[	c #A8BDA5",
"}	c #AAC7A7",
"|	c #72956B",
"1	c #A59676",
"2	c #A5987B",
"3	c #E2CFA7",
"4	c #E3D0A7",
"5	c #ADC5AA",
"6	c #ABC7A8",
"7	c #73956B",
"8	c #54704A",
"9	c #E0CEA6",
"0	c #999999",
"a	c #83A27E",
"b	c #ADC8AB",
"c	c #ABC7AA",
"d	c #5A784F",
"e	c #475F38",
"f	c #88A984",
"g	c #AAC7A8",
"h	c #4C663D",
"i	c #E6D1A5",
"j	c #8CAA87",
"k	c #709368",
"l	c #4D663D",
"m	c #E5D0A4",
"n	c #E0CBA0",
"o	c #DFCAA0",
"                  ",
"                  ",
"                  ",
"    .......       ",
".....+@#$%.&...   ",
"..**.=-;>,.**..   ",
".*.'.)!~{].*.*.   ",
".^^/.(!~{]..^^.   ",
"._:<.[}|{].123.   ",
".4...567{8...9.0  ",
".'..abc|{de..'.000",
".**..fg7{h..**.000",
".*.*i.jkl.m*.*.00 ",
"..***n...o***..00 ",
"...............0  ",
" 000000000000000  "};
