/* XPM */
static char * art_unread_xpm[] = {
"18 16 4 1",
" 	c None",
".	c #000000",
"+	c #FFE8B7",
"@	c #999999",
"                  ",
"                  ",
"                  ",
"                  ",
"...............   ",
"..+++++++++++..   ",
".+.+++++++++.+.   ",
".++.+++++++.++.   ",
".+++.+++++.+++.   ",
".++++.+++.++++.@  ",
".+++.+.+.+.+++.@@@",
".++.+++.+++.++.@@@",
".+.+++++++++.+.@@ ",
"..+++++++++++..@@ ",
"...............@  ",
" @@@@@@@@@@@@@@@  "};
