/* XPM */
static char * art_keep2_xpm[] = {
"16 16 84 1",
" 	c None",
".	c #000000",
"+	c #FEFEFE",
"@	c #FDFDFD",
"#	c #E0E0E0",
"$	c #C1C1C1",
"%	c #F1F1F1",
"&	c #C3C3C3",
"*	c #FBFBFB",
"=	c #A8A8A8",
"-	c #ADADAD",
";	c #767676",
">	c #5D5D5D",
",	c #404040",
"'	c #0E0E0E",
")	c #727272",
"!	c #F0F0F0",
"~	c #E2E2E2",
"{	c #858585",
"]	c #4B4B49",
"^	c #161616",
"/	c #965647",
"(	c #E1837D",
"_	c #D07773",
":	c #6A1F0E",
"<	c #1E0F0C",
"[	c #2E140F",
"}	c #50413E",
"|	c #B0B0B0",
"1	c #EFEFEF",
"2	c #EEEEEE",
"3	c #C5C5C5",
"4	c #DC6D64",
"5	c #DC6E64",
"6	c #D64240",
"7	c #A52E26",
"8	c #531D15",
"9	c #793430",
"0	c #9C4C45",
"a	c #3E2722",
"b	c #EDEDED",
"c	c #ECECEC",
"d	c #C4C4C4",
"e	c #B74930",
"f	c #D02725",
"g	c #922821",
"h	c #310D05",
"i	c #6D160D",
"j	c #6F1C0E",
"k	c #230B06",
"l	c #33201B",
"m	c #59514F",
"n	c #A5A5A5",
"o	c #EBEBEB",
"p	c #D4483D",
"q	c #C43225",
"r	c #D02420",
"s	c #7B1811",
"t	c #431309",
"u	c #6D170D",
"v	c #3C1B12",
"w	c #EAEAEA",
"x	c #CE1C18",
"y	c #901210",
"z	c #170703",
"A	c #2E1009",
"B	c #4E332D",
"C	c #9F9F9F",
"D	c #E8E8E8",
"E	c #C0C0C0",
"F	c #6F6F6F",
"G	c #E9E9E9",
"H	c #E7E7E7",
"I	c #BFBFBF",
"J	c #E5E5E5",
"K	c #BEBEBE",
"L	c #E6E6E6",
"M	c #E4E4E4",
"N	c #BDBDBD",
"O	c #E3E3E3",
"P	c #BBBBBB",
"Q	c #CACACA",
"R	c #BCBCBC",
"S	c #A0A0A0",
"   .........    ",
"  .++++++@#$.   ",
"  .+%%%%%%&*=.  ",
"  .+%%%%%%-;>,. ",
" ..')%%%%!~{]^. ",
" /(_:<[}|11223. ",
".4567890a2bbcd. ",
".4efghijklmno&. ",
".pqrstujvowww$. ",
" /xy.zABCDDDDE. ",
" ..'FwGGDDDHHI. ",
"  .@DDDDDDDDJK. ",
"  .@HHLLLJJMMN. ",
"  .@LJJJMMOOOP. ",
"  .QNNNRRPPPPS. ",
"   ...........  "};
