/* XPM */
static char * art_fup_xpm[] = {
"18 16 6 1",
" 	c None",
".	c #FF9966",
"+	c #FF6633",
"@	c #999999",
"#	c #000000",
"$	c #FFFFFF",
"                  ",
"       ##         ",
"       #$#        ",
"    ####.$#       ",
"#####+++..+#$##   ",
"##$$####.+#$$##   ",
"#$#$$$$#+#$$#$#   ",
"#$$#$$$##$$#$$#   ",
"#$$$#$$$$$#$$$#   ",
"#$$$$#$$$#$$$$#@  ",
"#$$$#$#$#$#$$$#@@@",
"#$$#$$$#$$$#$$#@@@",
"#$#$$$$$$$$$#$#@@ ",
"##$$$$$$$$$$$##@@ ",
"###############@  ",
" @@@@@@@@@@@@@@@  "};
