/* XPM */
static char * art_delete_xpm[] = {
"16 16 150 2",
"  	c None",
". 	c #343434",
"+ 	c #484848",
"@ 	c #3B3B3B",
"# 	c #202020",
"$ 	c #000000",
"% 	c #151411",
"& 	c #69685E",
"* 	c #CECECC",
"= 	c #E6E6E4",
"- 	c #DBDBD8",
"; 	c #AAAAA4",
"> 	c #393830",
", 	c #171714",
"' 	c #626155",
") 	c #BEBCA5",
"! 	c #BCBAA4",
"~ 	c #898878",
"{ 	c #5B5B55",
"] 	c #3F3F3B",
"^ 	c #43433B",
"/ 	c #86867C",
"( 	c #A09F89",
"_ 	c #A3A290",
": 	c #A5A38C",
"< 	c #545347",
"[ 	c #050505",
"} 	c #C7C6B3",
"| 	c #D1D0BD",
"1 	c #D4D2C5",
"2 	c #AEAEA5",
"3 	c #6F6E6A",
"4 	c #55544F",
"5 	c #424239",
"6 	c #616052",
"7 	c #9A9886",
"8 	c #B6B5A0",
"9 	c #B4B299",
"0 	c #A4A28B",
"a 	c #D1D0C6",
"b 	c #E4E3DD",
"c 	c #E6E6DE",
"d 	c #DDDCD2",
"e 	c #D3D3C8",
"f 	c #C6C5B5",
"g 	c #BEBCA6",
"h 	c #AFAD95",
"i 	c #BFBEA5",
"j 	c #C0BFA8",
"k 	c #B5B49F",
"l 	c #8C8A77",
"m 	c #0D0D0D",
"n 	c #A5A492",
"o 	c #C9C9C2",
"p 	c #E9E9E7",
"q 	c #F1F0EE",
"r 	c #F1F1ED",
"s 	c #F0EFE9",
"t 	c #E9E8E0",
"u 	c #DEDDD1",
"v 	c #D0CFC0",
"w 	c #B2B1A2",
"x 	c #858474",
"y 	c #686758",
"z 	c #515146",
"A 	c #8C8B7E",
"B 	c #BCBCAF",
"C 	c #DAD9D1",
"D 	c #CFCEC5",
"E 	c #C7C6BD",
"F 	c #B8B7A4",
"G 	c #ABA995",
"H 	c #8F8D79",
"I 	c #888774",
"J 	c #6D6C5F",
"K 	c #42413A",
"L 	c #141411",
"M 	c #363632",
"N 	c #6E6E69",
"O 	c #A7A6A0",
"P 	c #AAA99C",
"Q 	c #B6B6A9",
"R 	c #A1A089",
"S 	c #999781",
"T 	c #6F6E61",
"U 	c #52524A",
"V 	c #282824",
"W 	c #11110F",
"X 	c #272720",
"Y 	c #626253",
"Z 	c #505047",
"` 	c #464641",
" .	c #2F2F2C",
"..	c #353532",
"+.	c #1F1F19",
"@.	c #1D1D18",
"#.	c #1E1E19",
"$.	c #313129",
"%.	c #38382E",
"&.	c #171713",
"*.	c #2B2B24",
"=.	c #69695B",
"-.	c #88887B",
";.	c #97978F",
">.	c #6B6B61",
",.	c #74746A",
"'.	c #646456",
").	c #565649",
"!.	c #4F4F41",
"~.	c #4A4A3D",
"{.	c #3F3F34",
"].	c #1C1C17",
"^.	c #2C2C25",
"/.	c #9D9D8F",
"(.	c #AAAAA1",
"_.	c #8E8E84",
":.	c #87877D",
"<.	c #7B7B6E",
"[.	c #606051",
"}.	c #5D5D4D",
"|.	c #505042",
"1.	c #23231D",
"2.	c #9A9A8B",
"3.	c #ADADA3",
"4.	c #9A9A8C",
"5.	c #858574",
"6.	c #747462",
"7.	c #626251",
"8.	c #68685A",
"9.	c #979787",
"0.	c #ADADA2",
"a.	c #22221C",
"b.	c #24241E",
"c.	c #616154",
"d.	c #99998A",
"e.	c #ACACA2",
"f.	c #4D4D40",
"g.	c #2B2B25",
"h.	c #525248",
"i.	c #7E7E74",
"j.	c #7C7C6F",
"k.	c #8A8A7D",
"l.	c #777767",
"m.	c #666656",
"n.	c #35352B",
"o.	c #141412",
"p.	c #22221E",
"q.	c #1E1E1A",
"r.	c #191915",
"s.	c #10100D",
"            . + @ #             ",
"      $ % & * = - ; > , $       ",
"    ' ) ! ~ { ] ^ / ( _ : <     ",
"  [ } | 1 2 3 4 5 6 7 8 9 0 $   ",
"  $ a b c d e f g h i j k l $   ",
"  m n o p q r s t u v w x y $   ",
"    z A B C D E F G H I J K     ",
"    L M N O P Q R S T U V W     ",
"    X Y Z `  ...+.@.#.$.%.&.    ",
"    *.=.-.;.>.,.'.).!.~.{.].    ",
"    ^.=./.(._.:.<.[.}.}.|.1.    ",
"    ^.=.2.3.4.4.5.6.7.}.|.1.    ",
"    *.8.9.0.4.4.5.6.7.}.!.a.    ",
"    b.c.d.e.4.4.5.6.7.}.f.#.    ",
"      g.h.i.j.k.l.m.f.n.a.$     ",
"        $ o.].p.q.r.s.$         "};
