/* XPM */
static char * art_read_xpm[] = {
"18 16 5 1",
" 	c None",
".	c #000000",
"+	c #E0E0E0",
"@	c #FFFFFF",
"#	c #999999",
"    .......       ",
"   .+++++++.      ",
"  .++++++++@.     ",
" .++++++++@@@.    ",
".++++++++@@@@@.   ",
"..@@@@@@@@@@@..   ",
".@.@@@@@@@@@.@.   ",
".@@.@@@@@@@.@@.   ",
".@@@.@...@.@@@.   ",
".@@@@.@@@.@@@@.#  ",
".@@@.@@@@@.@@@.###",
".@@.@@@@@@@.@@.###",
".@.@@@@@@@@@.@.## ",
"..@@@@@@@@@@@..## ",
"...............#  ",
" ###############  "};
