/* XPM */
static char * art_watch_xpm[] = {
"16 16 7 1",
" 	c None",
".	c #000000",
"+	c #9DB8D2",
"@	c #FFFFFF",
"#	c #89A1B9",
"$	c #859DB4",
"%	c #8199AF",
"                ",
"                ",
"                ",
"                ",
"                ",
"    .         . ",
"   . .       . .",
"  .         .  .",
" ...........    ",
" .+@+. .+@+.    ",
" .#+$. .#+%.    ",
"  ...   ...     ",
"                ",
"                ",
"                ",
"                "};
