/* XPM */
static char * cancel_xpm[] = {
"24 24 165 2",
"  	c None",
". 	c #000000",
"+ 	c #E2E2E2",
"@ 	c #F2F2F2",
"# 	c #F3F3F3",
"$ 	c #F4F4F4",
"% 	c #F5F5F5",
"& 	c #F6F6F6",
"* 	c #F7F7F7",
"= 	c #DBDBDB",
"- 	c #F0F0F0",
"; 	c #E0E0E0",
"> 	c #E1E1E1",
", 	c #E3E3E3",
"' 	c #E4E4E4",
") 	c #E5E5E5",
"! 	c #E6E6E6",
"~ 	c #E7E7E7",
"{ 	c #E8E8E8",
"] 	c #E9E9E9",
"^ 	c #EAEAEA",
"/ 	c #EBEBEB",
"( 	c #ECECEC",
"_ 	c #EDEDED",
": 	c #EEEEEE",
"< 	c #EFEFEF",
"[ 	c #868686",
"} 	c #878787",
"| 	c #898989",
"1 	c #8A8A8A",
"2 	c #8B8B8B",
"3 	c #8C8C8C",
"4 	c #8D8D8D",
"5 	c #8E8E8E",
"6 	c #F1F1F1",
"7 	c #0F0B0A",
"8 	c #865C5B",
"9 	c #A36E6D",
"0 	c #3B2726",
"a 	c #653A39",
"b 	c #AD6260",
"c 	c #562F2E",
"d 	c #946362",
"e 	c #EE8C8A",
"f 	c #F15755",
"g 	c #F15655",
"h 	c #5A1D1C",
"i 	c #8F504E",
"j 	c #E57B78",
"k 	c #E64E4C",
"l 	c #E44746",
"m 	c #380D0C",
"n 	c #8F8F8F",
"o 	c #B0716F",
"p 	c #F24A49",
"q 	c #F3403F",
"r 	c #F23F3E",
"s 	c #5A1716",
"t 	c #8F4D4B",
"u 	c #E47572",
"v 	c #E44341",
"w 	c #E13533",
"x 	c #DE3331",
"y 	c #6E1918",
"z 	c #744746",
"A 	c #F24443",
"B 	c #F03E3D",
"C 	c #ED3C3B",
"D 	c #EA3A39",
"E 	c #AB4140",
"F 	c #E2706D",
"G 	c #E1403E",
"H 	c #DB312F",
"I 	c #CB2C2A",
"J 	c #1B0505",
"K 	c #909090",
"L 	c #952F2E",
"M 	c #E73837",
"N 	c #E43635",
"O 	c #DE3A38",
"P 	c #D82F2D",
"Q 	c #C82A28",
"R 	c #270808",
"S 	c #902322",
"T 	c #E33635",
"U 	c #E03433",
"V 	c #DA312F",
"W 	c #D52D2B",
"X 	c #C52826",
"Y 	c #270807",
"Z 	c #919191",
"` 	c #929292",
" .	c #C23836",
"..	c #DA302F",
"+.	c #D72F2D",
"@.	c #D42D2B",
"#.	c #D12B29",
"$.	c #CF2927",
"%.	c #661412",
"&.	c #F8F8F8",
"*.	c #8A3C39",
"=.	c #DD5B57",
"-.	c #D5302D",
";.	c #CE2927",
">.	c #CC2725",
",.	c #C92623",
"'.	c #C62421",
").	c #490C0B",
"!.	c #939393",
"~.	c #F9F9F9",
"{.	c #8A3835",
"].	c #DB5551",
"^.	c #D33330",
"/.	c #CB2725",
"(.	c #C3221F",
"_.	c #C1211E",
":.	c #BE1F1C",
"<.	c #460B09",
"[.	c #FAFAFA",
"}.	c #6D2A28",
"|.	c #DA504C",
"1.	c #D0302D",
"2.	c #C82523",
"3.	c #BA221F",
"4.	c #861716",
"5.	c #C1201E",
"6.	c #BC1D1A",
"7.	c #B91C18",
"8.	c #B71A17",
"9.	c #160302",
"0.	c #959595",
"a.	c #FBFBFB",
"b.	c #FCFCFC",
"c.	c #A33936",
"d.	c #CE302D",
"e.	c #B7201D",
"f.	c #240605",
"g.	c #751210",
"h.	c #B61A17",
"i.	c #B41915",
"j.	c #B21714",
"k.	c #580B09",
"l.	c #FDFDFD",
"m.	c #862A27",
"n.	c #C52321",
"o.	c #B41E1B",
"p.	c #710F0D",
"q.	c #B01612",
"r.	c #AE1511",
"s.	c #2B0504",
"t.	c #969696",
"u.	c #FEFEFE",
"v.	c #0F0403",
"w.	c #55100E",
"x.	c #5F0F0E",
"y.	c #230505",
"z.	c #410806",
"A.	c #560A08",
"B.	c #350604",
"C.	c #FFFFFF",
"D.	c #949494",
"E.	c #979797",
"F.	c #989898",
"G.	c #C9C9C9",
"H.	c #BDBDBD",
"  . . . . . . . . . . . . . . . . . . . .       ",
". + @ @ @ @ # # # $ $ $ % % % & & * * $ = .     ",
". - ; ; > + , ' ) ! ~ { { ] ^ / ( _ : < _ .     ",
". @ > [ [ } . . | | 1 1 2 2 3 . 4 4 5 - 6 .     ",
". @ + , , 7 8 9 0 . ] ^ / . a b c . - 6 @ .     ",
". # , } . d e f g h . 3 . i j k l m n @ # .     ",
". # ' ) . o p q q r s . t u v w x y @ # $ .     ",
". # ) | | z A r B C D E F G x H I J K $ % .     ",
". $ ! ~ { . L C D M N w O H P Q R # $ % & .     ",
". $ ~ 1 1 2 . S T U x V P W X Y Z ` ` & * .     ",
". % { ] ^ / ( .  ...+.@.#.$.%.. % & * * &..     ",
". % ] 2 3 3 . *.=.-.#.;.>.,.'.).. !.!.&.~..     ",
". % ^ / ( . {.].^.;./.,.'.(._.:.<.. ~.[.[..     ",
". & / 3 4 }.|.1./.2.3.4.5.:.6.7.8.9.0.a.b..     ",
". * _ _ . c.d.2.'.e.f.. g.7.h.i.j.k.a.b.l..     ",
". * : 5 . m.n.(.o.f.` ` . p.j.q.r.s.t.l.u..     ",
". &.- 6 @ v.w.x.y.& * &.~.. z.A.B.. u.C.C..     ",
". &.6 K K Z Z . ` !.!.D.0.0.t.. t.E.F.C.C..     ",
". @ @ # $ % & & * &.~.[.a.b.l.u.C.C.C.C.( .     ",
". G._ &.% & * &.&.~.[.a.b.l.u.C.C.C.C.: H..     ",
"  . . . . . . . . . . . . . . . . . . . .       ",
"                                                ",
"                                                ",
"                                                "};
