/* XPM */
static char * collapse_xpm[] = {
"24 24 10 1",
" 	c None",
".	c #000000",
"+	c #ADBCCE",
"@	c #B6C4D3",
"#	c #93A0AD",
"$	c #C4CEDC",
"%	c #7590AE",
"&	c #617891",
"*	c #7589A0",
"=	c #5E738B",
"                        ",
"                        ",
"                        ",
"                        ",
"                        ",
"                        ",
"                        ",
"                        ",
"                        ",
"    ...............     ",
"   .+@@@@@@@@@@@@@#.    ",
"   .$%%%%%%%%%%%%%&.    ",
"   .*==============.    ",
"    ................    ",
"                        ",
"                        ",
"                        ",
"                        ",
"                        ",
"                        ",
"                        ",
"                        ",
"                        ",
"                        "};
