/* XPM */
static char * de_xpm[] = {
"18 12 155 2",
"  	c None",
". 	c #000000",
"+ 	c #FFFFFF",
"@ 	c #D03536",
"# 	c #C73A3B",
"$ 	c #E76768",
"% 	c #3A3B3B",
"& 	c #C69000",
"* 	c #C79205",
"= 	c #D39E10",
"- 	c #CD9C18",
"; 	c #AC8621",
"> 	c #ECBA35",
", 	c #DEB138",
"' 	c #CEA434",
") 	c #F7C746",
"! 	c #C88D00",
"~ 	c #C98F03",
"{ 	c #CA9405",
"] 	c #C89009",
"^ 	c #D1970D",
"/ 	c #DCA41D",
"( 	c #DFAB21",
"_ 	c #D29E1F",
": 	c #A47C1B",
"< 	c #EAB32F",
"[ 	c #AF8623",
"} 	c #B89028",
"| 	c #BB902A",
"1 	c #C39A2E",
"2 	c #D1A435",
"3 	c #F6C142",
"4 	c #E1B542",
"5 	c #E6B746",
"6 	c #FBC84F",
"7 	c #FACB50",
"8 	c #F1C44E",
"9 	c #C79A30",
"0 	c #F5C450",
"a 	c #C78400",
"b 	c #C68503",
"c 	c #CC8A07",
"d 	c #CA8C12",
"e 	c #D69514",
"f 	c #E2A326",
"g 	c #B68526",
"h 	c #D8A02F",
"i 	c #C08F2D",
"j 	c #EFB33A",
"k 	c #CB9833",
"l 	c #DBA73E",
"m 	c #F9BF4A",
"n 	c #EEB74C",
"o 	c #F8C151",
"p 	c #EEB950",
"q 	c #C80C01",
"r 	c #C70C01",
"s 	c #CE140A",
"t 	c #C9170D",
"u 	c #D92218",
"v 	c #D33027",
"w 	c #E5352B",
"x 	c #BE332C",
"y 	c #C93A31",
"z 	c #F3473E",
"A 	c #D5423A",
"B 	c #FA564D",
"C 	c #EA5149",
"D 	c #E85048",
"E 	c #F65A51",
"F 	c #F96B64",
"G 	c #CB0000",
"H 	c #C70000",
"I 	c #AD0100",
"J 	c #C80303",
"K 	c #AD0303",
"L 	c #CF0505",
"M 	c #CC0505",
"N 	c #B20707",
"O 	c #C70909",
"P 	c #D00D0D",
"Q 	c #D71010",
"R 	c #0B0101",
"S 	c #B21212",
"T 	c #BD1414",
"U 	c #D21818",
"V 	c #DB1D1D",
"W 	c #E32121",
"X 	c #CF2020",
"Y 	c #CA2626",
"Z 	c #E92F2F",
"` 	c #F13535",
" .	c #932121",
"..	c #C63030",
"+.	c #C22F2F",
"@.	c #E13838",
"#.	c #D23434",
"$.	c #F54242",
"%.	c #D83A3A",
"&.	c #FC4646",
"*.	c #E24140",
"=.	c #E44242",
"-.	c #E54646",
";.	c #C73F3E",
">.	c #FE5050",
",.	c #FA4F4F",
"'.	c #F54E4E",
").	c #F45050",
"!.	c #E34A4A",
"~.	c #D94C4C",
"{.	c #F55757",
"].	c #E35151",
"^.	c #D95050",
"/.	c #BE4646",
"(.	c #F55E5E",
"_.	c #F46565",
":.	c #FE6A6A",
"<.	c #130A0A",
"[.	c #160D0D",
"}.	c #100A0A",
"|.	c #211818",
"1.	c #342B2B",
"2.	c #2F2727",
"3.	c #473E3E",
"4.	c #302A2A",
"5.	c #504848",
"6.	c #554D4D",
"7.	c #595151",
"8.	c #504949",
"9.	c #605959",
"0.	c #6B6464",
"a.	c #6A6A6A",
"b.	c #656565",
"c.	c #5E5E5E",
"d.	c #575757",
"e.	c #505050",
"f.	c #4F4F4F",
"g.	c #464646",
"h.	c #424242",
"i.	c #414141",
"j.	c #383838",
"k.	c #353535",
"l.	c #323232",
"m.	c #2F2F2F",
"n.	c #212121",
"o.	c #1F1F1F",
"p.	c #1D1D1D",
"q.	c #191919",
"r.	c #181818",
"s.	c #111111",
"t.	c #101010",
"u.	c #0D0D0D",
"v.	c #090909",
"w.	c #050505",
"x.	c #030303",
". . . . . . . . . . . . . . . . . . ",
". . . q.% a.d.j.r.w.. w.t.n.k.g.e.. ",
". . s.l.b.c.i.o.v.. x.u.p.m.h.f.e.. ",
". }.4.9.0.5.2.[.R R <.|.1.3.6.7.8.. ",
".  ./.$ ^.+.S K I N T Y %.!.].~.;.. ",
". # :.{.@.U M G L Q W ` &.>.'.=.#.. ",
". _.(.*.X O H J P V Z $.,.).-.@ ... ",
". F D v t r q s u w z B E C A y x . ",
". p h d b a c e f j m o n l k i g . ",
". , - * & { = ( > ) 7 8 4 ' 1 } ; . ",
". _ ] ! ~ ^ / < 3 6 0 5 2 9 | [ : . ",
". . . . . . . . . . . . . . . . . . "};
