/* XPM */
static char * dialog_error_xpm[] = {
"24 24 182 2",
"  	c None",
". 	c #000000",
"+ 	c #3F1106",
"@ 	c #BE3A1C",
"# 	c #E95327",
"$ 	c #F45C2C",
"% 	c #F7612E",
"& 	c #F35A2A",
"* 	c #E74C23",
"= 	c #B93217",
"- 	c #3B0B03",
"; 	c #CB411E",
"> 	c #F86731",
", 	c #F2602D",
"' 	c #E65025",
") 	c #DC421F",
"! 	c #D63A1A",
"~ 	c #D33718",
"{ 	c #D33719",
"] 	c #D83C1C",
"^ 	c #E0441F",
"/ 	c #BB3016",
"( 	c #290A04",
"_ 	c #EA5729",
": 	c #F96731",
"< 	c #E64E25",
"[ 	c #D93B1B",
"} 	c #D83C1B",
"| 	c #D73B1B",
"1 	c #D6391A",
"2 	c #D43819",
"3 	c #D23618",
"4 	c #D03418",
"5 	c #CE3316",
"6 	c #CC3116",
"7 	c #CC3218",
"8 	c #240601",
"9 	c #EA5727",
"0 	c #F56330",
"a 	c #E04620",
"b 	c #DA3D1C",
"c 	c #DB3E1C",
"d 	c #D93C1B",
"e 	c #D73B1A",
"f 	c #D53819",
"g 	c #D13518",
"h 	c #CF3317",
"i 	c #CD3116",
"j 	c #CB2F16",
"k 	c #C02A12",
"l 	c #CA401E",
"m 	c #DF4620",
"n 	c #DC401C",
"o 	c #DD401D",
"p 	c #DC3F1D",
"q 	c #D83B1B",
"r 	c #D43719",
"s 	c #D23519",
"t 	c #D03318",
"u 	c #CE3116",
"v 	c #C92D14",
"w 	c #9D1E0C",
"x 	c #3E0E06",
"y 	c #F86431",
"z 	c #E44D24",
"A 	c #DF421E",
"B 	c #DA3E1C",
"C 	c #D13618",
"D 	c #CF3318",
"E 	c #CC2F16",
"F 	c #C22712",
"G 	c #330802",
"H 	c #BC3719",
"I 	c #F25D2C",
"J 	c #DC3F1C",
"K 	c #CE3117",
"L 	c #CB2F15",
"M 	c #C92E15",
"N 	c #C42913",
"O 	c #89180A",
"P 	c #E85025",
"Q 	c #E44C22",
"R 	c #D5391A",
"S 	c #CE3818",
"T 	c #BF3518",
"U 	c #C13618",
"V 	c #C23618",
"W 	c #BE3417",
"X 	c #BD3217",
"Y 	c #BB2F16",
"Z 	c #C03016",
"` 	c #BD2F15",
" .	c #BC2D14",
"..	c #CA2F16",
"+.	c #C52A12",
"@.	c #AE1E0D",
"#.	c #DA3F1E",
"$.	c #FFFFFF",
"%.	c #D7614D",
"&.	c #C92C15",
"*.	c #C62A13",
"=.	c #B8200D",
"-.	c #F65C2E",
";.	c #D23719",
">.	c #BB3116",
",.	c #D6604D",
"'.	c #C82C13",
").	c #C42912",
"!.	c #B8200E",
"~.	c #F15428",
"{.	c #BA2E16",
"].	c #D5604D",
"^.	c #C62B13",
"/.	c #C22711",
"(.	c #B71E0D",
"_.	c #E44922",
":.	c #D03417",
"<.	c #CF3418",
"[.	c #D64E35",
"}.	c #DC6650",
"|.	c #DB6550",
"1.	c #DA644F",
"2.	c #D9634F",
"3.	c #D8624E",
"4.	c #CE4632",
"5.	c #BF2411",
"6.	c #AB1C0C",
"7.	c #B62F14",
"8.	c #CE3217",
"9.	c #D03317",
"0.	c #CD3217",
"a.	c #CD3016",
"b.	c #C92D15",
"c.	c #C82C14",
"d.	c #C62B14",
"e.	c #B9200E",
"f.	c #851508",
"g.	c #3A0A03",
"h.	c #DF401E",
"i.	c #CC3016",
"j.	c #CC3017",
"k.	c #CA2F15",
"l.	c #C62A14",
"m.	c #C52913",
"n.	c #BE2410",
"o.	c #B61E0D",
"p.	c #2F0602",
"q.	c #B92C13",
"r.	c #C92E14",
"s.	c #CA2E15",
"t.	c #C82C15",
"u.	c #C82B14",
"v.	c #C02511",
"w.	c #B61E0E",
"x.	c #8E1609",
"y.	c #CA3016",
"z.	c #C82D14",
"A.	c #C72C14",
"B.	c #C52A13",
"C.	c #C52912",
"D.	c #BF2511",
"E.	c #B81F0D",
"F.	c #A91A0B",
"G.	c #240401",
"H.	c #BE2811",
"I.	c #C72C13",
"J.	c #C72B13",
"K.	c #C42812",
"L.	c #BD2310",
"M.	c #200300",
"N.	c #9B1D0C",
"O.	c #C12812",
"P.	c #C02611",
"Q.	c #BC2310",
"R.	c #B71F0E",
"S.	c #B51D0D",
"T.	c #330702",
"U.	c #871609",
"V.	c #B61D0D",
"W.	c #AA1B0B",
"X.	c #851308",
"Y.	c #2F0502",
"                                                ",
"                . . . . . . .                   ",
"            . + @ # $ % & * = - .               ",
"          . ; > , ' ) ! ~ { ] ^ / .             ",
"        ( _ : < [ } | 1 2 3 4 5 6 7 8           ",
"      . 9 0 a b c b d e f ~ g h i j k .         ",
"    . l > m b n o p b q ! r s t u j v w .       ",
"    x y z d c o A o B ] ! 2 C D u E v F G       ",
"  . H I ! q c p o J b } ! r g h K L M N O .     ",
"  . P Q R S T U V U T W X Y Z `  ...v +.@..     ",
"  . & #.2 X $.$.$.$.$.$.$.$.$.$.$.%.&.*.=..     ",
"  . -.;.{ >.$.$.$.$.$.$.$.$.$.$.$.,.'.).!..     ",
"  . ~.t g {.$.$.$.$.$.$.$.$.$.$.$.].^./.(..     ",
"  . _.:.<.[.}.}.}.}.}.|.1.2.3.%.,.4.*.5.6..     ",
"  . 7.R i 8.h D 9.9.h 8.0.a.L b.c.d.N e.f..     ",
"    g.h.E i.i i K 0.j.i.j k.b.c.l.m.n.o.p.      ",
"    . q.r.k.j j L L ..s.b.t.u.^.m.v.w.x..       ",
"      . y.c.v b.b.b.z.c.A.^.B.C.D.E.F..         ",
"        G.H.^.d.I.J.J.^.B.C.K.L.(.F.M..         ",
"          . N.D.O.K.m.F P.Q.R.S.x.. .           ",
"            . T.U.6.o.w.V.W.X.Y..               ",
"                . . . . . . .                   ",
"                                                ",
"                                                "};
