/* XPM */
static char * discard_xpm[] = {
"24 24 209 2",
"  	c None",
". 	c #905A4D",
"+ 	c #A25E4E",
"@ 	c #AE5E4E",
"# 	c #A35545",
"$ 	c #884335",
"% 	c #956256",
"& 	c #BF6550",
"* 	c #DD573A",
"= 	c #DA4424",
"- 	c #D63A1B",
"; 	c #D23719",
"> 	c #CF391E",
", 	c #B6341F",
"' 	c #842516",
") 	c #9C675A",
"! 	c #D85B3D",
"~ 	c #DC411E",
"{ 	c #D93C1B",
"] 	c #D53919",
"^ 	c #D23618",
"/ 	c #CF3317",
"( 	c #CB2F15",
"_ 	c #C82C14",
": 	c #C22912",
"< 	c #8E1C0D",
"[ 	c #97675B",
"} 	c #DC5738",
"| 	c #DC3F1C",
"1 	c #D83C1B",
"2 	c #D53819",
"3 	c #D13518",
"4 	c #CE3217",
"5 	c #C42912",
"6 	c #C12511",
"7 	c #BC220F",
"8 	c #84160A",
"9 	c #8C665E",
"0 	c #CA5F47",
"a 	c #DB3F1C",
"b 	c #D83B1B",
"c 	c #D43819",
"d 	c #CE3216",
"e 	c #C72C14",
"f 	c #C42812",
"g 	c #BD220F",
"h 	c #BA1F0E",
"i 	c #B21B0C",
"j 	c #5D0C05",
"k 	c #A0685C",
"l 	c #DA4423",
"m 	c #D73B1A",
"n 	c #D33819",
"o 	c #CF3417",
"p 	c #CC3116",
"q 	c #C92E15",
"r 	c #C62B13",
"s 	c #C22812",
"t 	c #BF2510",
"u 	c #BB220F",
"v 	c #B81E0E",
"w 	c #B61C0C",
"x 	c #B3180B",
"y 	c #871007",
"z 	c #000000",
"A 	c #140E0D",
"B 	c #AD5745",
"C 	c #D73B1B",
"D 	c #CB4E36",
"E 	c #DAABA2",
"F 	c #DDADA5",
"G 	c #DBABA3",
"H 	c #D8A9A2",
"I 	c #D7A7A0",
"J 	c #D5A59F",
"K 	c #D3A39D",
"L 	c #D1A29C",
"M 	c #D0A09B",
"N 	c #BE4F45",
"O 	c #AF1509",
"P 	c #930E05",
"Q 	c #110100",
"R 	c #E8E3E3",
"S 	c #BD4B34",
"T 	c #D43719",
"U 	c #D05D48",
"V 	c #F3F3F3",
"W 	c #F7F7F7",
"X 	c #F6F6F6",
"Y 	c #F4F4F4",
"Z 	c #F1F1F1",
"` 	c #F0F0F0",
" .	c #EEEEEE",
"..	c #CF7B75",
"+.	c #AC1208",
"@.	c #9C0D05",
"#.	c #C0A7A6",
"$.	c #FEFEFE",
"%.	c #FFFFFF",
"&.	c #120D0C",
"*.	c #B53D26",
"=.	c #D03417",
"-.	c #CE5B47",
";.	c #F2F2F2",
">.	c #EDEDED",
",.	c #ECECEC",
"'.	c #CC7872",
").	c #A80E06",
"!.	c #8F0A04",
"~.	c #B7A2A1",
"{.	c #EEE8E7",
"].	c #96301E",
"^.	c #CC3F28",
"/.	c #D77769",
"(.	c #D87B6F",
"_.	c #D67A6E",
":.	c #D3766B",
"<.	c #D07268",
"[.	c #CE7067",
"}.	c #CC6D65",
"|.	c #C96962",
"1.	c #C5635E",
"2.	c #B12B25",
"3.	c #A40B04",
"4.	c #7C0C09",
"5.	c #0A0000",
"6.	c #E9E9E9",
"7.	c #FCFBFB",
"8.	c #A4655B",
"9.	c #C52C14",
"0.	c #C62A13",
"a.	c #C22711",
"b.	c #BF2410",
"c.	c #BB210E",
"d.	c #B81D0D",
"e.	c #B51A0C",
"f.	c #B2170A",
"g.	c #AE1409",
"h.	c #AB1107",
"i.	c #A70E06",
"j.	c #A40A04",
"k.	c #990703",
"l.	c #4D0100",
"m.	c #A7A7A7",
"n.	c #D5D5D5",
"o.	c #CCB9B6",
"p.	c #A52815",
"q.	c #C22611",
"r.	c #BF2310",
"s.	c #BB200E",
"t.	c #B41A0B",
"u.	c #B1170A",
"v.	c #AA1007",
"w.	c #A70D06",
"x.	c #9F0703",
"y.	c #810201",
"z.	c #5D4545",
"A.	c #9E9E9E",
"B.	c #C9C9C9",
"C.	c #FBFAFA",
"D.	c #9C6760",
"E.	c #B0200E",
"F.	c #AE1309",
"G.	c #A00703",
"H.	c #8A0201",
"I.	c #531515",
"J.	c #707070",
"K.	c #9D9D9D",
"L.	c #CACACA",
"M.	c #F5F3F3",
"N.	c #975E57",
"O.	c #A41B0D",
"P.	c #B3190B",
"Q.	c #B0160A",
"R.	c #AD1308",
"S.	c #A60D05",
"T.	c #A30904",
"U.	c #9D0602",
"V.	c #810200",
"W.	c #521818",
"X.	c #605E5E",
"Y.	c #888888",
"Z.	c #B1B1B1",
"`.	c #DADADA",
" +	c #F3F1F1",
".+	c #AE8E8A",
"++	c #710D05",
"@+	c #9C1107",
"#+	c #A60F06",
"$+	c #A40C05",
"%+	c #9B0903",
"&+	c #860501",
"*+	c #5C0000",
"=+	c #220000",
"-+	c #747272",
";+	c #919191",
">+	c #B0B0B0",
",+	c #D3D3D3",
"'+	c #EAE6E6",
")+	c #B9A4A3",
"!+	c #280201",
"~+	c #875755",
"{+	c #7E5756",
"]+	c #130000",
"^+	c #959292",
"/+	c #AAAAAA",
"(+	c #DFDFDF",
"_+	c #FBFBFB",
":+	c #999999",
"                  . + @ # $                     ",
"              % & * = - ; > , '                 ",
"            ) ! ~ { ] ^ / ( _ : <               ",
"          [ } | 1 2 3 4 ( _ 5 6 7 8             ",
"        9 0 a b c 3 d ( e f 6 g h i j           ",
"        k l m n o p q r s t u v w x y           ",
"  z z A B C D E F G H I J K L M N O P Q z z z   ",
"  z z R S T U V W X Y V Z `  . ...+.@.#.$.z z   ",
"  z %.&.*.=.-.` V ;.Z `  .>.,.,.'.).!.~.z %.z   ",
"  z %.{.].p ^./.(._.:.<.[.}.|.1.2.3.4.5.6.%.z   ",
"  z %.7.8.9.0.a.b.c.d.e.f.g.h.i.j.k.l.m.n.%.z   ",
"  z %.%.o.p.q.r.s.d.t.u.g.v.w.j.x.y.z.A.B.%.z   ",
"  z %.%.C.D.E.s.d.t.u.F.v.w.j.G.H.I.J.K.L.%.z   ",
"  z %.%.%.M.N.O.P.Q.R.v.S.T.U.V.W.X.Y.Z.`.%.z   ",
"  z %.%.%.%. +.+++@+#+$+%+&+*+=+-+;+>+,+ .%.z   ",
"  z %.%.%.%.%.z '+)+!+~+{+]+^+/+z B.(+Z _+%.z :+",
"  z %.%.%.%.z %.%.%.%.z z %.%.%.%.z %.%.%.%.z :+",
"  z %.%.%.z %.%.%.%.%.%.%.%.%.%.%.%.z %.%.%.z :+",
"  z %.%.z %.%.%.%.%.%.%.%.%.%.%.%.%.%.z %.%.z :+",
"  z %.z %.%.%.%.%.%.%.%.%.%.%.%.%.%.%.%.z %.z :+",
"  z z %.%.%.%.%.%.%.%.%.%.%.%.%.%.%.%.%.%.z z :+",
"  z z z z z z z z z z z z z z z z z z z z z z   ",
":+:+:+:+:+:+:+:+:+:+:+:+:+:+:+:+:+:+:+:+:+:+:+  ",
":+:+:+:+:+:+:+:+:+:+:+:+:+:+:+:+:+:+:+:+:+:+:+  "};
