/* XPM */
static char * search_xpm[] = {
"24 23 69 1",
" 	c None",
".	c #AFAFAF",
"+	c #9B9B9B",
"@	c #9A9A9A",
"#	c #525252",
"$	c #1E1E1E",
"%	c #030303",
"&	c #1C1C1C",
"*	c #4E4E4E",
"=	c #949494",
"-	c #989898",
";	c #FAFAFA",
">	c #D6D6D6",
",	c #313131",
"'	c #262626",
")	c #DDDDDD",
"!	c #F7F7F7",
"~	c #CECECE",
"{	c #464646",
"]	c #2B2B2B",
"^	c #C7C7C7",
"/	c #F2F2F2",
"(	c #F8F8F8",
"_	c #F9F9F9",
":	c #969696",
"<	c #C0C0C0",
"[	c #828282",
"}	c #E1E1E1",
"|	c #000000",
"1	c #B6B6B6",
"2	c #868686",
"3	c #F6F6F6",
"4	c #6F6F6F",
"5	c #E6E6E6",
"6	c #303030",
"7	c #D1D1D1",
"8	c #FFFFFF",
"9	c #ABABAB",
"0	c #252525",
"a	c #9C9C9C",
"b	c #B5B5B5",
"c	c #050505",
"d	c #F5F5F5",
"e	c #040404",
"f	c #CACACA",
"g	c #E9E9E9",
"h	c #999999",
"i	c #F4F4F4",
"j	c #BFBFBF",
"k	c #020202",
"l	c #7A7A7A",
"m	c #8E8E8E",
"n	c #E0E0E0",
"o	c #D7D7D7",
"p	c #A4A4A4",
"q	c #686868",
"r	c #757575",
"s	c #858585",
"t	c #E8E8E8",
"u	c #E3E3E3",
"v	c #6D6D6D",
"w	c #E5E5E5",
"x	c #E4E4E4",
"y	c #A1A1A1",
"z	c #1F1F1F",
"A	c #676767",
"B	c #333333",
"C	c #787878",
"D	c #393939",
"                        ",
"                        ",
"                        ",
"                        ",
"                        ",
" .++++++@#$%%&*=-@++++. ",
" +;;;;;>,')!!~{]^/(;;;+ ",
" +;;;;_,:(;;;;<[$}.|1;+ ",
" +;;;;2{(;;;;;13{453;;+ ",
" +;;;_67;;;;;81;90a|b;+ ",
" +;;;(c!;;;;;81;defg(;+ ",
" .+++h%!;;;;;;1ijklmh+  ",
"      |n;;;;;;;;o|      ",
"      |{p+++++++q|      ",
"       rst;;;_uv||      ",
"        |{pwxy{||||     ",
"         |||||| zz||    ",
"                |AB||   ",
"                 |CD||  ",
"                  |A$|  ",
"                   ||   ",
"                        ",
"                        "};
