/* XPM */
static char * followup_xpm[] = {
"24 24 174 2",
"  	c None",
". 	c #000000",
"+ 	c #E2E2E2",
"@ 	c #F2F2F2",
"# 	c #F3F3F3",
"$ 	c #F4F4F4",
"% 	c #F5F5F5",
"& 	c #F6F6F6",
"* 	c #F7F7F7",
"= 	c #EAEAEA",
"- 	c #F0F0F0",
"; 	c #E0E0E0",
"> 	c #E1E1E1",
", 	c #E3E3E3",
"' 	c #E4E4E4",
") 	c #E5E5E5",
"! 	c #E6E6E6",
"~ 	c #E7E7E7",
"{ 	c #E8E8E8",
"] 	c #E9E9E9",
"^ 	c #EBEBEB",
"/ 	c #ECECEC",
"( 	c #FBE73B",
"_ 	c #F2B64D",
": 	c #868686",
"< 	c #878787",
"[ 	c #888888",
"} 	c #898989",
"| 	c #8A8A8A",
"1 	c #8B8B8B",
"2 	c #8C8C8C",
"3 	c #FCEB3D",
"4 	c #F7B544",
"5 	c #5D502C",
"6 	c #EBEAE8",
"7 	c #ECEBE9",
"8 	c #FCE93B",
"9 	c #F7B545",
"0 	c #6C5F34",
"a 	c #FAE43A",
"b 	c #F4B244",
"c 	c #605737",
"d 	c #F9DF39",
"e 	c #F3AF42",
"f 	c #625637",
"g 	c #F9DC38",
"h 	c #EFB44D",
"i 	c #665A32",
"j 	c #DFDFDF",
"k 	c #B4B4B4",
"l 	c #696969",
"m 	c #CCCCCC",
"n 	c #F5D536",
"o 	c #F0A93F",
"p 	c #655930",
"q 	c #737373",
"r 	c #363932",
"s 	c #545E46",
"t 	c #2B2E26",
"u 	c #ECC933",
"v 	c #E9A13D",
"w 	c #5B502F",
"x 	c #989794",
"y 	c #929292",
"z 	c #2D2F2A",
"A 	c #6E7C5D",
"B 	c #566049",
"C 	c #747471",
"D 	c #CFA76F",
"E 	c #5F542E",
"F 	c #F8F8F8",
"G 	c #626262",
"H 	c #2B3024",
"I 	c #72805F",
"J 	c #3A3A3A",
"K 	c #483B13",
"L 	c #8F8F8F",
"M 	c #919191",
"N 	c #939393",
"O 	c #F9F9F9",
"P 	c #EDEDED",
"Q 	c #262626",
"R 	c #7A8A64",
"S 	c #627347",
"T 	c #5A5A5A",
"U 	c #A2A2A2",
"V 	c #DEDEDE",
"W 	c #FAFAFA",
"X 	c #8D8D8D",
"Y 	c #161616",
"Z 	c #A2B783",
"` 	c #586C33",
" .	c #282828",
"..	c #6C6C6C",
"+.	c #7C7C7C",
"@.	c #0A0A0A",
"#.	c #545454",
"$.	c #7F7F7F",
"%.	c #858585",
"&.	c #FBFBFB",
"*.	c #FCFCFC",
"=.	c #EEEEEE",
"-.	c #EFEFEF",
";.	c #B0C78E",
">.	c #6B8637",
",.	c #374026",
"'.	c #C6C6C6",
").	c #0A0C05",
"!.	c #3F492B",
"~.	c #D4D4D4",
"{.	c #FDFDFD",
"].	c #8E8E8E",
"^.	c #171717",
"/.	c #A5B98B",
"(.	c #8CA85B",
"_.	c #627B32",
":.	c #252B19",
"<.	c #131313",
"[.	c #14190A",
"}.	c #668034",
"|.	c #2C351B",
"1.	c #585858",
"2.	c #FEFEFE",
"3.	c #F1F1F1",
"4.	c #3E3E3E",
"5.	c #798668",
"6.	c #B4C896",
"7.	c #89A553",
"8.	c #7D9C42",
"9.	c #7C9B40",
"0.	c #283214",
"a.	c #929291",
"b.	c #FFFFFF",
"c.	c #909090",
"d.	c #757575",
"e.	c #1C1E1A",
"f.	c #B6C4A9",
"g.	c #BECFA4",
"h.	c #9DB672",
"i.	c #93AE63",
"j.	c #91AD5F",
"k.	c #819A57",
"l.	c #3F4733",
"m.	c #5F5F5F",
"n.	c #515250",
"o.	c #6E7867",
"p.	c #C9D7BC",
"q.	c #D1DEBF",
"r.	c #CADAB4",
"s.	c #BFD3A4",
"t.	c #BAD09D",
"u.	c #ACBD96",
"v.	c #5C6551",
"w.	c #C9C9C9",
"x.	c #C8C8C8",
"y.	c #5D5F5C",
"z.	c #6B7562",
"A.	c #AFBEA0",
"B.	c #C5D6B0",
"C.	c #CADAB5",
"D.	c #BCD1A0",
"E.	c #AFC198",
"F.	c #575D50",
"G.	c #878786",
"H.	c #BDBDBD",
"I.	c #0A0B09",
"J.	c #1A1D18",
"K.	c #20231C",
"L.	c #3C4235",
"M.	c #AFC199",
"N.	c #595F53",
"O.	c #080807",
"P.	c #141514",
"Q.	c #545851",
"  . . . . . . . . . . . . . . . . . . . .       ",
". + @ @ @ @ # # # $ $ $ % % % & & * = = . .     ",
". - ; ; > + , ' ) ! ~ { { ] = ^ / = = . ( _ .   ",
". @ > : : < < [ } } | | 1 1 2 2 2 2 . 3 4 5 .   ",
". @ + , , ' ) ! ~ { ] = ^ / = 6 7 . 8 9 0 .     ",
". # , < [ [ } } | | 1 2 2 2 2 2 . a b c . .     ",
". # ' ) ! ~ ~ { ] = ^ = = = = . d e f . = .     ",
". # ) } } | | | 1 2 2 2 2 2 . g h i . $ % .     ",
". $ ! ~ { ] ] ~ j k l } m . n o p . = % & .     ",
". $ ~ | | 1 | [ q r s t . u v w . x y & * .     ",
". % { ] = ^ ] > z A B C . D E . $ & * * F .     ",
". % ] 1 2 2 } G H I J . K . . 2 L M N F O .     ",
". % = ^ / P ~ Q R S T . . U V , ^ # F W W .     ",
". & ^ 2 X X | Y Z `  ...+.@.#.$.%.X y &.*..     ",
". * P P =.-.] Q ;.>.,.L '.).!.} ~.+ - *.{..     ",
". * =.].].L 1 ^./.(._.:.<.[.}.|.1.$.} {.2..     ",
". F - 3.@ @ -.4.5.6.7.8.9.9.9.>.0.a.V b.b..     ",
". F 3.c.c.M L d.e.f.g.h.i.j.j.j.k.l.m.b.b..     ",
". @ @ # $ % % @ n.o.p.q.r.s.t.t.u.v.< b./ .     ",
". w.P F % & * * x.y.z.A.B.C.D.E.F.G.=.=.H..     ",
"  . . . . . . . . . I.J.K.L.M.N.O.. . . .       ",
"                          P.Q..                 ",
"                          . .                   ",
"                                                "};
