/* XPM */
static char * fr_xpm[] = {
"18 12 149 2",
"  	c None",
". 	c #000000",
"+ 	c #FFFFFF",
"@ 	c #D03536",
"# 	c #EEEDF1",
"$ 	c #0000C7",
"% 	c #0000C6",
"& 	c #00007C",
"* 	c #0303C9",
"= 	c #0303C6",
"- 	c #0505C7",
"; 	c #0909C8",
"> 	c #0D0DC9",
", 	c #0A0A88",
"' 	c #1212CA",
") 	c #1818CD",
"! 	c #111190",
"~ 	c #1F20D0",
"{ 	c #191999",
"] 	c #2727D3",
"^ 	c #2424C4",
"/ 	c #2525C3",
"( 	c #2121A4",
"_ 	c #2929C7",
": 	c #3030D8",
"< 	c #2B2BC4",
"[ 	c #3030CD",
"} 	c #2A2AAE",
"| 	c #3838DD",
"1 	c #3838DC",
"2 	c #3232B8",
"3 	c #3939CA",
"4 	c #4141E2",
"5 	c #3A3BC3",
"6 	c #3B3AC3",
"7 	c #4848E8",
"8 	c #4646D1",
"9 	c #5050ED",
"0 	c #5757F1",
"a 	c #4E4ED5",
"b 	c #5E5EF5",
"c 	c #5959E5",
"d 	c #6464F9",
"e 	c #6464F8",
"f 	c #6867FA",
"g 	c #6565F3",
"h 	c #6665F3",
"i 	c #6A6AFA",
"j 	c #6565E5",
"k 	c #7979F3",
"l 	c #8484F8",
"m 	c #C7C7CB",
"n 	c #C3C3C7",
"o 	c #C2C2C6",
"p 	c #D7D7DB",
"q 	c #CFCFD3",
"r 	c #CECED2",
"s 	c #DEDEE1",
"t 	c #C6C6C9",
"u 	c #EFEFF0",
"v 	c #DBDBDC",
"w 	c #FAFDFE",
"x 	c #CED3D3",
"y 	c #C8CDCD",
"z 	c #C6CBCB",
"A 	c #E9EEEE",
"B 	c #F9FDFD",
"C 	c #F5F9F9",
"D 	c #F3F7F7",
"E 	c #DFE3E3",
"F 	c #D6DADA",
"G 	c #E5E6E6",
"H 	c #D2D2CF",
"I 	c #D1D1CE",
"J 	c #CBCBC8",
"K 	c #C9C9C6",
"L 	c #ECECEA",
"M 	c #E1E1DF",
"N 	c #D8D8D6",
"O 	c #CBCBC9",
"P 	c #DEDEDD",
"Q 	c #D9D9D8",
"R 	c #D21818",
"S 	c #DF2121",
"T 	c #DB2424",
"U 	c #A41B1B",
"V 	c #AC2121",
"W 	c #E92F2F",
"X 	c #AF2323",
"Y 	c #B52626",
"Z 	c #E53332",
"` 	c #B82828",
" .	c #EC3535",
"..	c #BB2A2A",
"+.	c #BD2C2C",
"@.	c #C32E2E",
"#.	c #C02D2D",
"$.	c #C73030",
"%.	c #C93231",
"&.	c #C63030",
"*.	c #CE3434",
"=.	c #CB3333",
"-.	c #F33E3E",
";.	c #F54242",
">.	c #EF4141",
",.	c #D53A3A",
"'.	c #F74646",
").	c #DB3F3E",
"!.	c #D03C3C",
"~.	c #E14242",
"{.	c #F94A4A",
"].	c #FA4D4D",
"^.	c #E54646",
"/.	c #EA4949",
"(.	c #FA4F4F",
"_.	c #F74E4E",
":.	c #FA5050",
"<.	c #EE4C4C",
"[.	c #F14E4E",
"}.	c #E04848",
"|.	c #F85151",
"1.	c #F75151",
"2.	c #F45050",
"3.	c #F95656",
"4.	c #ED5353",
"5.	c #F65858",
"6.	c #C7B0B0",
"7.	c #CDB6B6",
"8.	c #D5BFBF",
"9.	c #DFC9C9",
"0.	c #E9D4D4",
"a.	c #F2DDDD",
"b.	c #EFDBDB",
"c.	c #E3D0D0",
"d.	c #F7E3E3",
"e.	c #F6E2E2",
"f.	c #C8C7C7",
"g.	c #FBFBFB",
"h.	c #F7F7F7",
"i.	c #F6F6F6",
"j.	c #ECECEC",
"k.	c #E2E2E2",
"l.	c #D3D3D3",
"m.	c #D0D0D0",
"n.	c #CDCDCD",
"o.	c #CCCCCC",
"p.	c #CACACA",
"q.	c #C8C8C8",
"r.	c #C7C7C7",
". . . . . . . . . . . . . . . . . . ",
". & & { 5 l # P n.r.z 6.R S  .'.:.. ",
". & ! 2 g k s H f.r.y 7.T W ;.(.2.. ",
". , } c e j q O r.q.x 8.Z -.].1./.. ",
". ( 8 f 9 a t K r.o.F 9.>.{.|.<.).. ",
". 6 i 0 | 3 o K p.l.E 0._.:.[.~.*.. ",
". h b 4 ~ < o J m.v A a.3.2.^.@ &.. ",
". d 7 ] > / n I Q G D d.5./.,.%.+.. ",
". 9 : ' = ^ m N k.u B e.4.).=.#.Y . ",
". 1 ) - % _ r M j.h.w b.}.*.@.` V . ",
". ~ ; $ * [ p L i.g.C c.!.$...X U . ",
". . . . . . . . . . . . . . . . . . "};
