/* XPM */
static char * global_search_xpm[] = {
"24 24 291 2",
"  	c None",
". 	c #32383C",
"+ 	c #6F7980",
"@ 	c #BCC5CB",
"# 	c #D2D8DC",
"$ 	c #DFE6EB",
"% 	c #E8EFF4",
"& 	c #CCD7DE",
"* 	c #BDCBD5",
"= 	c #A3B1BC",
"- 	c #010305",
"; 	c #B8BEC2",
"> 	c #DFE8EF",
", 	c #DAE5ED",
"' 	c #DCE7EE",
") 	c #E4EDF3",
"! 	c #D9E4EC",
"~ 	c #CCDBE5",
"{ 	c #C2D3E0",
"] 	c #C4D3DF",
"^ 	c #D8E3EA",
"/ 	c #A5B1BC",
"( 	c #B8C3CA",
"_ 	c #CFDBE5",
": 	c #C5D6E3",
"< 	c #D3E2EC",
"[ 	c #C7D9E5",
"} 	c #C5D8E5",
"| 	c #C2D4E1",
"1 	c #C4D6E2",
"2 	c #D4E1EA",
"3 	c #CDDAE4",
"4 	c #D4E1E9",
"5 	c #A9B6BF",
"6 	c #BDC8CE",
"7 	c #DAE6ED",
"8 	c #DDE8EF",
"9 	c #E1ECF3",
"0 	c #D1E1EB",
"a 	c #C4DAE8",
"b 	c #C1D7E6",
"c 	c #BDD3E2",
"d 	c #D9E5ED",
"e 	c #D5E2EA",
"f 	c #D0DEE7",
"g 	c #CBD9E4",
"h 	c #98ACB9",
"i 	c #97A7B1",
"j 	c #D6E2EB",
"k 	c #DBE8EF",
"l 	c #C6D7E3",
"m 	c #C3D7E4",
"n 	c #C0D9E8",
"o 	c #C2DBEA",
"p 	c #BCD5E5",
"q 	c #B7D0E0",
"r 	c #C7D8E3",
"s 	c #D3E1EA",
"t 	c #D0DFE9",
"u 	c #CBDAE5",
"v 	c #C6D6E1",
"w 	c #B6CAD8",
"x 	c #7B8F9F",
"y 	c #60727F",
"z 	c #C5D5E1",
"A 	c #D1DFE8",
"B 	c #D4E2EB",
"C 	c #ACC2D3",
"D 	c #AAC5D7",
"E 	c #B4CEE0",
"F 	c #B9D4E5",
"G 	c #BAD5E6",
"H 	c #B5D0E2",
"I 	c #B6CFDF",
"J 	c #D0E0EA",
"K 	c #A2BACC",
"L 	c #B8CBD9",
"M 	c #BBCDDB",
"N 	c #C0D2DE",
"O 	c #B4C8D6",
"P 	c #9AB3C6",
"Q 	c #8498A7",
"R 	c #A2B8C9",
"S 	c #9EBACE",
"T 	c #A5C1D5",
"U 	c #A9C6DA",
"V 	c #ACCADD",
"W 	c #A8C6DB",
"X 	c #ADC8DA",
"Y 	c #CBDCE7",
"Z 	c #B4C9D8",
"` 	c #A3BACB",
" .	c #A3B9C9",
"..	c #ABC1D1",
"+.	c #99B3C6",
"@.	c #728A9A",
"#.	c #070D13",
"$.	c #181E23",
"%.	c #899FAE",
"&.	c #7E98AD",
"*.	c #96AEC1",
"=.	c #87A5BB",
"-.	c #93B1C7",
";.	c #97B6CD",
">.	c #9BBBD1",
",.	c #9DBDD4",
"'.	c #9DBDD3",
").	c #C9DCE8",
"!.	c #C9DBE6",
"~.	c #C4D6E3",
"{.	c #BED2DF",
"].	c #B8CDDA",
"^.	c #AAC0D0",
"/.	c #9FB8CB",
"(.	c #90AABE",
"_.	c #7990A1",
":.	c #070D14",
"<.	c #141A20",
"[.	c #98B0C3",
"}.	c #86A2B8",
"|.	c #7292AB",
"1.	c #7E9EB7",
"2.	c #83A4BD",
"3.	c #88A9C2",
"4.	c #8BADC6",
"5.	c #8CAFC8",
"6.	c #9CBACF",
"7.	c #C4D8E5",
"8.	c #C1D4E2",
"9.	c #BCD0DE",
"0.	c #B6CBDA",
"a.	c #AFC5D5",
"b.	c #A4BDCE",
"c.	c #94AEC1",
"d.	c #95AFC2",
"e.	c #4E6A83",
"f.	c #070E14",
"g.	c #0A1117",
"h.	c #51718D",
"i.	c #87A2B7",
"j.	c #85A3B9",
"k.	c #95B0C5",
"l.	c #89A8BF",
"m.	c #7A9EB8",
"n.	c #799DB9",
"o.	c #7A9FBA",
"p.	c #799EBA",
"q.	c #8AAAC2",
"r.	c #BBD0DE",
"s.	c #B7CDDC",
"t.	c #B2C9D8",
"u.	c #ACC4D4",
"v.	c #A5BDCF",
"w.	c #9FB8CA",
"x.	c #91ABBF",
"y.	c #7691A8",
"z.	c #284969",
"A.	c #060C11",
"B.	c #080E14",
"C.	c #395C7B",
"D.	c #416686",
"E.	c #7895AD",
"F.	c #A8C0D1",
"G.	c #ADC5D5",
"H.	c #98B3C8",
"I.	c #6990AD",
"J.	c #668DAC",
"K.	c #6289A8",
"L.	c #8CA9BF",
"M.	c #A6BECF",
"N.	c #A0B9CC",
"O.	c #9BB4C7",
"P.	c #94AFC2",
"Q.	c #66839B",
"R.	c #264665",
"S.	c #050B10",
"T.	c #060A0E",
"U.	c #2D4C67",
"V.	c #3D6282",
"W.	c #708FA8",
"X.	c #A2BBCD",
"Y.	c #A6BED0",
"Z.	c #A9C2D2",
"`.	c #96B2C6",
" +	c #6F92AD",
".+	c #5A81A0",
"++	c #59809F",
"@+	c #537998",
"#+	c #4A7090",
"$+	c #587B98",
"%+	c #A0B9CB",
"&+	c #96B0C3",
"*+	c #88A3B8",
"=+	c #2A4967",
"-+	c #1D3955",
";+	c #020609",
">+	c #25415A",
",+	c #365A7A",
"'+	c #7492A9",
")+	c #9CB5C8",
"!+	c #A3BBCD",
"~+	c #4A708F",
"{+	c #4F7595",
"]+	c #4C7292",
"^+	c #496E8F",
"/+	c #436888",
"(+	c #95AFC3",
"_+	c #8FABBF",
":+	c #708DA4",
"<+	c #254666",
"[+	c #17314B",
"}+	c #000000",
"|+	c #2E5172",
"1+	c #3D5F7D",
"2+	c #8FA9BD",
"3+	c #99B2C6",
"4+	c #9DB7C9",
"5+	c #748FA7",
"6+	c #426787",
"7+	c #446A8A",
"8+	c #426788",
"9+	c #3F6485",
"0+	c #3B6080",
"a+	c #809CB2",
"b+	c #8EAABE",
"c+	c #89A5BA",
"d+	c #6A879F",
"e+	c #1F3F5F",
"f+	c #0B1824",
"g+	c #1F3A53",
"h+	c #2C4F6F",
"i+	c #4A6A86",
"j+	c #91ACC0",
"k+	c #94AEC2",
"l+	c #617E96",
"m+	c #3B5F7F",
"n+	c #395D7D",
"o+	c #325676",
"p+	c #7F9BB1",
"q+	c #87A3B8",
"r+	c #819FB5",
"s+	c #25425E",
"t+	c #102438",
"u+	c #000103",
"v+	c #020407",
"w+	c #1F3C58",
"x+	c #335473",
"y+	c #8CA7BC",
"z+	c #728DA4",
"A+	c #2B4C6B",
"B+	c #315575",
"C+	c #315474",
"D+	c #2F5273",
"E+	c #2D5070",
"F+	c #2A4C6C",
"G+	c #587790",
"H+	c #7E9DB3",
"I+	c #5F7E95",
"J+	c #132D47",
"K+	c #04080D",
"L+	c #25405B",
"M+	c #7F9EB4",
"N+	c #7B98AE",
"O+	c #3D5A74",
"P+	c #284A6A",
"Q+	c #264868",
"R+	c #244565",
"S+	c #214262",
"T+	c #33526E",
"U+	c #48657C",
"V+	c #192F46",
"W+	c #03070C",
"X+	c #2D4050",
"Y+	c #3F5B75",
"Z+	c #1D3C5C",
"`+	c #1F405F",
" @	c #1E3E5D",
".@	c #1C3B5B",
"+@	c #1A3958",
"@@	c #163554",
"#@	c #0A1B2B",
"$@	c #010204",
"%@	c #060C15",
"&@	c #0D2032",
"*@	c #112941",
"=@	c #163351",
"-@	c #173554",
";@	c #15314F",
">@	c #102A44",
",@	c #0A1C2E",
"'@	c #030A10",
"                                                ",
"              . . . . . . . . .                 ",
"            . + @ # $ % & * = . -               ",
"          . ; > , ' ) ! ~ { ] ^ / -             ",
"        . ( _ ' : < [ } | 1 2 3 4 5 -           ",
"      . 6 7 8 9 0 a a b c d e 2 f g h -         ",
"    . i j d k l m n o p q r s t u v w x -       ",
"  . y z A B C D E F G H I J K L M N O P -       ",
"  - Q N u R S T U V V W X J Y Z `  ...+.@.#.    ",
"  $.%.&.*.=.-.;.>.,.,.'.).!.~.{.].^./.(._.:.    ",
"  <.[.}.|.1.2.3.4.5.5.6.7.8.9.0.a.b.c.d.e.f.    ",
"  g.h.i.j.k.l.m.n.o.p.q.r.s.t.u.v.w.x.y.z.A.    ",
"  B.C.D.E.F.G.H.I.J.J.K.L.w.c.M.N.O.P.Q.R.S.    ",
"  T.U.V.W.X.Y.Z.`. +.+++@+#+$+%+O.&+*+=+-+;+    ",
"  . >+,+'+)+%+!+v.M.~+{+]+^+/+c.(+_+:+<+[+}+    ",
"    - |+1+2+3+)+4+5+6+7+8+9+0+a+b+c+d+e+f+}+    ",
"    - g+h+i+j+k+&+l+0+m+n+,+o+p+q+r+s+t+u+      ",
"      v+w+x+c+y+z+A+B+C+D+E+F+G+H+I+J+- }+      ",
"        K+L+M+N+O+P+P+P+Q+R+S+T+U+V+W+}+        ",
"          - X+Y+Z+e+`+e+ @.@+@@@#@$@}+          ",
"            }+%@&@*@=@-@;@>@,@'@}+}+            ",
"                }+}+}+}+}+}+}+}+                ",
"                                                ",
"                                                "};
