/* XPM */
static char * mark_all_xpm[] = {
"24 24 116 2",
"  	c None",
". 	c #000000",
"+ 	c #E4E5DE",
"@ 	c #D3D5CA",
"# 	c #A5A797",
"$ 	c #F3F4F0",
"% 	c #ABAE99",
"& 	c #BDC0AD",
"* 	c #BCBEAA",
"= 	c #B1B49F",
"- 	c #6E715C",
"; 	c #0C100C",
"> 	c #E6E7DD",
", 	c #F5F6F3",
"' 	c #E4E5DB",
") 	c #E2E4D9",
"! 	c #E1E3D8",
"~ 	c #DFE1D6",
"{ 	c #2424D9",
"] 	c #F7F7F6",
"^ 	c #D3D6C5",
"/ 	c #D3D6C4",
"( 	c #D2D4C2",
"_ 	c #D0D2C0",
": 	c #CED1BD",
"< 	c #CCCEBA",
"[ 	c #CACDB9",
"} 	c #C8CBB6",
"| 	c #C6C9B3",
"1 	c #939685",
"2 	c #010109",
"3 	c #F0F0EB",
"4 	c #000001",
"5 	c #F0F1EC",
"6 	c #9C9F8F",
"7 	c #484940",
"8 	c #EFF0EB",
"9 	c #9B9D8D",
"0 	c #909284",
"a 	c #EDEEE8",
"b 	c #2828D9",
"c 	c #022202",
"d 	c #ECEEE7",
"e 	c #C4C8B1",
"f 	c #6E6F62",
"g 	c #9E9F98",
"h 	c #ADADA6",
"i 	c #3233DA",
"j 	c #2627D9",
"k 	c #C4C6B6",
"l 	c #E8E8E0",
"m 	c #C3C6AF",
"n 	c #C1C4AD",
"o 	c #0F1018",
"p 	c #7A82E4",
"q 	c #B9BBAD",
"r 	c #4446DD",
"s 	c #3F41DD",
"t 	c #3132DB",
"u 	c #93967C",
"v 	c #C6C9BA",
"w 	c #909478",
"x 	c #030305",
"y 	c #7F87E5",
"z 	c #909AE8",
"A 	c #777EE4",
"B 	c #010102",
"C 	c #696B62",
"D 	c #020205",
"E 	c #5357DF",
"F 	c #494CDE",
"G 	c #3C3EDD",
"H 	c #2E2FDA",
"I 	c #11121C",
"J 	c #8F9AE8",
"K 	c #5F65E1",
"L 	c #090A11",
"M 	c #6970E2",
"N 	c #6167E1",
"O 	c #5358E0",
"P 	c #4649DE",
"Q 	c #3233DB",
"R 	c #B8BCA6",
"S 	c #020203",
"T 	c #7881E4",
"U 	c #8A93E7",
"V 	c #6B72E3",
"W 	c #7880E5",
"X 	c #5E63E1",
"Y 	c #484CDD",
"Z 	c #ABAD99",
"` 	c #BFC2AB",
" .	c #BDC1A8",
"..	c #8E9175",
"+.	c #7B83E5",
"@.	c #8D98E7",
"#.	c #909BE8",
"$.	c #838BE6",
"%.	c #757DE4",
"&.	c #5F64E0",
"*.	c #05060E",
"=.	c #9B9E8B",
"-.	c #BBBEA5",
";.	c #BABDA3",
">.	c #8B8F72",
",.	c #6D74E3",
"'.	c #8F99E7",
").	c #6D75E3",
"!.	c #767969",
"~.	c #B7BAA0",
"{.	c #7880E4",
"].	c #7A82E5",
"^.	c #757767",
"/.	c #63645D",
"(.	c #34362B",
"_.	c #646751",
"                                                ",
"                                                ",
"      . . . .                                   ",
"    . + @ @ # .                                 ",
"  . $ % & * = - . . . . . . . ; .               ",
"  . > , > > > ' > ) ) ! ! ~ . { { .             ",
"  . ] ^ / ( _ : < [ [ } | 1 2 { { .             ",
"  . 3 ^ / ( _ : < [ [ } | . { { { { 4           ",
"  . 5 ( _ : < 6 . . . . 7 . { { { { { .         ",
"  . 8 : < [ 9 . + @ @ 0 4 { { { { { { .         ",
"  . a [ } | . $ % & * . b { { { { { c .         ",
"  . d | e f . g , > h 4 i j { { { { . k .       ",
"  . l m n o p . q / . r s t { { { . e u .       ",
"  . v w x y z A B C D E F G H { . | e u .       ",
"    . . I z J z K L M N O P Q . R m n w .       ",
"        S T z J U V W V X Y . Z n `  ....       ",
"        . B +.@.#.J $.%.&.*.=.`  .-.;.>..       ",
"          . . ,.'.z @.).. !.-.-.;.~.~.>..       ",
"            . . {.'.].. ^.;.~.~.~.~.~.>..       ",
"            . /.S X . (.>.>.>.>.>.>.>._..       ",
"              . . . . . . . . . . . . . .       ",
"                                                ",
"                                                ",
"                                                "};
