/* XPM */
static char * mark_multiple_xpm[] = {
"18 18 59 1",
" 	c None",
".	c #000000",
"+	c #FFE8B7",
"@	c #302B22",
"#	c #201D16",
"$	c #636E61",
"%	c #647260",
"&	c #495745",
"*	c #3F4F39",
"=	c #354430",
"-	c #A7BCA4",
";	c #ACC7AA",
">	c #73946B",
",	c #5D7A52",
"'	c #4C6543",
")	c #1F1C16",
"!	c #A8BCA4",
"~	c #A9C6A6",
"{	c #72956A",
"]	c #5B7950",
"^	c #4A6341",
"/	c #403A2D",
"(	c #020202",
"_	c #A9BDA5",
":	c #BFAD89",
"<	c #FDE6B5",
"[	c #91856F",
"}	c #A2967B",
"|	c #A8BDA5",
"1	c #AAC7A7",
"2	c #72956B",
"3	c #B5A582",
"4	c #D7C49C",
"5	c #FBE4B4",
"6	c #ADC5AA",
"7	c #ABC7A8",
"8	c #73956B",
"9	c #54704A",
"0	c #100E0B",
"a	c #83A27E",
"b	c #ADC8AB",
"c	c #ABC7AA",
"d	c #5A784F",
"e	c #475F38",
"f	c #9F9072",
"g	c #88A984",
"h	c #AAC7A8",
"i	c #4C663D",
"j	c #F5DFB0",
"k	c #8CAA87",
"l	c #709368",
"m	c #4D663D",
"n	c #0E0D0A",
"o	c #544C3C",
"p	c #0D0C0A",
"q	c #8F8266",
"r	c #4C4536",
"s	c #EBD9B1",
"t	c #F2DEB3",
"                  ",
"                  ",
"...............   ",
"..++++@.....#..   ",
".+.....$%&*=..... ",
".+..++.-;>,'.++.. ",
".+.+.).!~{]^./....",
".+.+.(._~{]^.:+++.",
".+.<[}.|12]^.34+..",
".+.5...678]9..0.+.",
".+.+..abc2]de0.++.",
"...+.f.gh8]i#.+++.",
"...+.+j.klm/n+.++.",
"  ...++o...p+++.+.",
"  ...+.+q.r+++++..",
"    ..+++st++++++.",
"    ..............",
"                  "};
