/* XPM */
static char * mark_xpm[] = {
"24 24 148 2",
"  	c None",
". 	c #0D110D",
"+ 	c #000000",
"@ 	c #2424D9",
"# 	c #737466",
"$ 	c #E4E5DE",
"% 	c #D3D5CA",
"& 	c #A5A797",
"* 	c #F3F4F0",
"= 	c #ABAE99",
"- 	c #AEB19C",
"; 	c #AEB09C",
"> 	c #B2B5A1",
", 	c #B2B4A0",
"' 	c #AFB29D",
") 	c #6E715C",
"! 	c #1B1BA8",
"~ 	c #181893",
"{ 	c #000900",
"] 	c #E6E7DD",
"^ 	c #F5F6F3",
"/ 	c #E4E5DB",
"( 	c #71726C",
"_ 	c #3F403A",
": 	c #F7F7F6",
"< 	c #D3D6C5",
"[ 	c #D1D5C3",
"} 	c #D0D3C1",
"| 	c #CFD2BF",
"1 	c #CDD0BE",
"2 	c #CCCFBC",
"3 	c #CBCDBA",
"4 	c #B0B3A1",
"5 	c #171B16",
"6 	c #7A7C67",
"7 	c #F0F0EB",
"8 	c #D2D4C3",
"9 	c #D1D4C3",
"0 	c #CFD3C1",
"a 	c #CFD1C0",
"b 	c #CED0BD",
"c 	c #CCCEBC",
"d 	c #CACEB9",
"e 	c #2727D9",
"f 	c #022202",
"g 	c #76786A",
"h 	c #93967C",
"i 	c #F0F1EC",
"j 	c #D1D3C1",
"k 	c #74776C",
"l 	c #8E9083",
"m 	c #CCCFBD",
"n 	c #CBCEBB",
"o 	c #989A8B",
"p 	c #3031D9",
"q 	c #2627D9",
"r 	c #BEC1A8",
"s 	c #909478",
"t 	c #EFF0EB",
"u 	c #CFD1BF",
"v 	c #6A71E2",
"w 	c #B3B5A4",
"x 	c #191917",
"y 	c #3D3FDC",
"z 	c #3F41DD",
"A 	c #3132DB",
"B 	c #BFC2AB",
"C 	c #BEC0A8",
"D 	c #8E9175",
"E 	c #6B71C1",
"F 	c #909AE8",
"G 	c #676CE1",
"H 	c #252522",
"I 	c #65665C",
"J 	c #5054DE",
"K 	c #494CDE",
"L 	c #3C3EDD",
"M 	c #2E2FDA",
"N 	c #242420",
"O 	c #BFC3AB",
"P 	c #BEC1A9",
"Q 	c #BDC0A8",
"R 	c #020203",
"S 	c #8F9AE8",
"T 	c #474ADD",
"U 	c #000001",
"V 	c #666CE1",
"W 	c #6167E1",
"X 	c #5358E0",
"Y 	c #4649DE",
"Z 	c #2D2EDA",
"` 	c #B5B8A2",
" .	c #BDC1A9",
"..	c #BCBFA7",
"+.	c #666DE1",
"@.	c #848CE6",
"#.	c #585DE0",
"$.	c #7880E5",
"%.	c #6B72E3",
"&.	c #5E63E1",
"*.	c #4144DC",
"=.	c #0F190E",
"-.	c #A9AD98",
";.	c #C0C3AC",
">.	c #BEC2AA",
",.	c #BEC0A9",
"'.	c #BCBFA6",
").	c #EDEEE8",
"!.	c #3F4039",
"~.	c #6A70E2",
"{.	c #8B96E6",
"].	c #909BE8",
"^.	c #838BE6",
"/.	c #757DE4",
"(.	c #565BDF",
"_.	c #10180F",
":.	c #9DA08D",
"<.	c #BCC0A8",
"[.	c #BCBEA6",
"}.	c #8B8F72",
"|.	c #ECEEE7",
"1.	c #C7CBB6",
"2.	c #4A4C44",
"3.	c #565ADF",
"4.	c #8E98E6",
"5.	c #8D98E7",
"6.	c #5E65E1",
"7.	c #162C16",
"8.	c #797B6D",
"9.	c #C1C4AD",
"0.	c #C0C2AB",
"a.	c #BBBEA5",
"b.	c #E8E8E0",
"c.	c #C7C9B4",
"d.	c #C6C9B4",
"e.	c #4A4B43",
"f.	c #656CE1",
"g.	c #696FE2",
"h.	c #797A6D",
"i.	c #C1C4AE",
"j.	c #BDC0A7",
"k.	c #BABEA4",
"l.	c #C6C9BA",
"m.	c #8E9276",
"n.	c #47493B",
"o.	c #4345DD",
"p.	c #34352A",
"q.	c #646751",
"                                                ",
"                                                ",
"                                                ",
"                              . .               ",
"        + + + + + +         + @ @ +             ",
"      # $ % % % % & +       + @ @ +             ",
"    + * = - ; > , ' ) + + + ! @ @ ~ { + +       ",
"    + ] ^ ] ] ] ] ] / ] ( + @ @ @ @ @ + _ +     ",
"    + : < [ } | 1 2 3 4 5 @ @ @ @ @ @ + 6 +     ",
"    + 7 8 9 0 a b c d + e @ @ @ @ @ f g h +     ",
"    + i j k + l m n o + p q @ @ @ @ + r s +     ",
"    + t u + v + w 3 x y z A @ @ @ + B C D +     ",
"    + 7 + E F G H I + J K L M @ N O P Q h +     ",
"    + i R F S F T U V W X Y Z N ` B  ...s +     ",
"    + t + +.F S @.#.$.%.&.*.=.-.;.>.,.'.D +     ",
"    + ).!.+ ~.{.].S ^./.(._.:.;.O P <.[.}.+     ",
"    + |.1.2.+ 3.4.F 5.6.7.8.9.0.>.C ..a.}.+     ",
"    + b.c.d.e.+ f.4.g.+ h.i.;.B  .j.[.k.}.+     ",
"    + l.s m.D n.+ o.+ p.}.}.}.}.}.}.}.}.q.+     ",
"      + + + + + + + + + + + + + + + + + + +     ",
"                                                ",
"                                                ",
"                                                ",
"                                                "};
