/* XPM */
static char * next_unread_xpm[] = {
"24 24 43 1",
" 	c None",
".	c #000000",
"+	c #8CA782",
"@	c #B1CDAE",
"#	c #77A16E",
"$	c #B4CEB1",
"%	c #ACC8A9",
"&	c #709867",
"*	c #C1D6BD",
"=	c #BDD3B8",
"-	c #BFD4BB",
";	c #C2D7BE",
">	c #B0CAAD",
",	c #B2CBB0",
"'	c #AAC7A8",
")	c #0F1308",
"!	c #AEC5A8",
"~	c #AEC8AD",
"{	c #ABC7A8",
"]	c #AAC6A7",
"^	c #A8C6A5",
"/	c #ADC8AD",
"(	c #A8C7A8",
"_	c #A5C4A3",
":	c #7F9F76",
"<	c #A6BFA0",
"[	c #ABC7AA",
"}	c #A7C5A4",
"|	c #A9C7A6",
"1	c #AFC8AD",
"2	c #A4C3A2",
"3	c #6B9060",
"4	c #778E6F",
"5	c #698D60",
"6	c #6B9063",
"7	c #445B2C",
"8	c #6B8661",
"9	c #5B7950",
"0	c #FFE8B7",
"a	c #6C8562",
"b	c #65815C",
"c	c #506B46",
"d	c #999999",
"                        ",
"                        ",
"                        ",
"        .               ",
"        ..              ",
"        .+.             ",
"        .@#.            ",
" ........$%&.           ",
" .*=-;;;;>,'&)          ",
" .!~{{{]^'/(_:.         ",
" .<[^}^|{%'{123.        ",
" .45666666666657....... ",
" .8999999999997.00000.. ",
" .a99999999997.00000.0. ",
" .bcccccc9997.00000.00. ",
" ........c97.00000.000. ",
"        .c7.0.000.0000.d",
"        .7.0.0.0.0.000.d",
"        ..0.000.000.00.d",
"        .0.000000000.0.d",
"        ..00000000000..d",
"        ...............d",
"                        ",
"                        "};
