/* XPM */
static char * part_xpm[] = {
"16 16 13 1",
" 	c None",
".	c #4B6983",
"+	c #4F4F4F",
"@	c #494949",
"#	c #4C4C4C",
"$	c #505050",
"%	c #DADADA",
"&	c #FFFFFF",
"*	c #BDBDBD",
"=	c #A37A1F",
"-	c #D1940C",
";	c #4D4D4D",
">	c #A9872E",
"................",
".              .",
".  +@@@@#      .",
". $%&&&&%+     .",
". @&&&*+@@@@#  .",
". @&&&$%&&&&%+ .",
". @&&&@&&&&&&@ .",
". @&&&@&&&&&&@ .",
". @&&&@&&&&&&@ .",
". @&&&@&&&&&&@ .",
"  +%&&@&&&&&&@ .",
"  =-@@@&&&&&&@ .",
" ---  +%&&&&%; .",
"----   $@@@@;  .",
" ---           .",
"  >- ..........."};
