/* XPM */
static char * post_xpm[] = {
"24 24 87 1",
" 	c None",
".	c #000000",
"+	c #E2E2E2",
"@	c #F2F2F2",
"#	c #F3F3F3",
"$	c #F4F4F4",
"%	c #F5F5F5",
"&	c #F6F6F6",
"*	c #F7F7F7",
"=	c #EAEAEA",
"-	c #F0F0F0",
";	c #E0E0E0",
">	c #E1E1E1",
",	c #E3E3E3",
"'	c #E4E4E4",
")	c #E5E5E5",
"!	c #E6E6E6",
"~	c #E7E7E7",
"{	c #E8E8E8",
"]	c #E9E9E9",
"^	c #EBEBEB",
"/	c #ECECEC",
"(	c #FBE73B",
"_	c #F2B64D",
":	c #868686",
"<	c #878787",
"[	c #888888",
"}	c #898989",
"|	c #8A8A8A",
"1	c #8B8B8B",
"2	c #8C8C8C",
"3	c #FCEB3D",
"4	c #F7B544",
"5	c #5D502C",
"6	c #EBEAE8",
"7	c #ECEBE9",
"8	c #FCE93B",
"9	c #F7B545",
"0	c #6C5F34",
"a	c #FAE43A",
"b	c #F4B244",
"c	c #605737",
"d	c #F9DF39",
"e	c #F3AF42",
"f	c #625637",
"g	c #F9DC38",
"h	c #EFB44D",
"i	c #665A32",
"j	c #F8D837",
"k	c #F0A93F",
"l	c #655930",
"m	c #8D8D8D",
"n	c #F6D236",
"o	c #EDA43E",
"p	c #5C5130",
"q	c #989794",
"r	c #929292",
"s	c #EDEDED",
"t	c #EEEEEE",
"u	c #E8E7E4",
"v	c #E6E5E2",
"w	c #E0DFDC",
"x	c #D7AE74",
"y	c #61562F",
"z	c #F8F8F8",
"A	c #8E8E8E",
"B	c #4F4115",
"C	c #939393",
"D	c #F9F9F9",
"E	c #EFEFEF",
"F	c #F1F1F1",
"G	c #FAFAFA",
"H	c #8F8F8F",
"I	c #909090",
"J	c #919191",
"K	c #949494",
"L	c #959595",
"M	c #FBFBFB",
"N	c #FCFCFC",
"O	c #FDFDFD",
"P	c #969696",
"Q	c #FEFEFE",
"R	c #FFFFFF",
"S	c #979797",
"T	c #989898",
"U	c #C9C9C9",
"V	c #BDBDBD",
" ....................   ",
".+@@@@###$$$%%%&&*==..  ",
".-;;>+,')!~{{]=^/==.(_. ",
".@>::<<[}}||112222.345. ",
".@+,,')!~{]=^/=67.890.  ",
".#,<[[}}||122222.abc..  ",
".#')!~~{]=^====.def.=.  ",
".#)}}|||122222.ghi.$%.  ",
".$!~{]=======.jkl.=%&.  ",
".$~||1222m22.nop.qr&*.  ",
".%{]=^/stuvw.xy.%&**z.  ",
".%]122mmA22.B..rrCCzD.  ",
".%=^/stE-F=..$%&*zDGG.  ",
".&^2mmAHHIIJJrrCCKLMN.  ",
".*sstE-F@#$%%&*zDGMNO.  ",
".*tAAHHIIJrrCCCKLLPOQ.  ",
".z-F@@#$%&*zDGMMNOQRR.  ",
".zFIIJJrrCCKLLPPPSTRR.  ",
".@@#$%&&*zDGMNOQRRRR/.  ",
".Usz%&*zzDGMNOQRRRRtV.  ",
" ....................   ",
"                        ",
"                        ",
"                        "};
