/* XPM */
static char * receive_headers_selected_xpm[] = {
"24 24 209 2",
"  	c None",
". 	c #000000",
"+ 	c #2A2A2A",
"@ 	c #0F0F0F",
"# 	c #080808",
"$ 	c #E2E2E2",
"% 	c #C1C1C1",
"& 	c #9B9B9B",
"* 	c #070400",
"= 	c #B6B6B6",
"- 	c #F3F3F3",
"; 	c #F4F4F4",
"> 	c #F5F5F5",
", 	c #F6F6F6",
"' 	c #F7F7F7",
") 	c #DBDBDB",
"! 	c #F0F0F0",
"~ 	c #E4E4E4",
"{ 	c #3A3535",
"] 	c #FDFDFC",
"^ 	c #070707",
"/ 	c #E3E3E3",
"( 	c #E5E5E5",
"_ 	c #E6E6E6",
": 	c #E7E7E7",
"< 	c #E8E8E8",
"[ 	c #E9E9E9",
"} 	c #EAEAEA",
"| 	c #EBEBEB",
"1 	c #ECECEC",
"2 	c #EDEDED",
"3 	c #EEEEEE",
"4 	c #EFEFEF",
"5 	c #F2F2F2",
"6 	c #2D2929",
"7 	c #FDFAF8",
"8 	c #445E79",
"9 	c #304D6B",
"0 	c #314E6C",
"a 	c #F1F1F1",
"b 	c #D9D9D9",
"c 	c #3A3636",
"d 	c #F9F1EA",
"e 	c #4D6177",
"f 	c #2E4A66",
"g 	c #2D4965",
"h 	c #304C6A",
"i 	c #353131",
"j 	c #F9EEE4",
"k 	c #4F4D4A",
"l 	c #5E5E5E",
"m 	c #0C0C0C",
"n 	c #B2B2B2",
"o 	c #C2C2C2",
"p 	c #C3C3C3",
"q 	c #C4C4C4",
"r 	c #C6C6C6",
"s 	c #D0D0D0",
"t 	c #131313",
"u 	c #4E4A4A",
"v 	c #F9F0E4",
"w 	c #746C67",
"x 	c #FEFDFC",
"y 	c #EAE9E8",
"z 	c #0B0A09",
"A 	c #29425B",
"B 	c #F3F2F2",
"C 	c #98948F",
"D 	c #F9EFE3",
"E 	c #A09489",
"F 	c #FEFDFD",
"G 	c #766D68",
"H 	c #736961",
"I 	c #A3A3A2",
"J 	c #040609",
"K 	c #E8E5E2",
"L 	c #97938E",
"M 	c #F6E9D8",
"N 	c #84817A",
"O 	c #FBF3EA",
"P 	c #908C86",
"Q 	c #F1EDE7",
"R 	c #7B7975",
"S 	c #878786",
"T 	c #060000",
"U 	c #E2DFDC",
"V 	c #A8A199",
"W 	c #F0E0CE",
"X 	c #C8BFB4",
"Y 	c #D5CCBF",
"Z 	c #DFD7CD",
"` 	c #DAD3C9",
" .	c #DDCFC4",
"..	c #928C84",
"+.	c #050000",
"@.	c #71916E",
"#.	c #748A72",
"$.	c #8DB389",
"%.	c #030000",
"&.	c #D9D5D2",
"*.	c #D9CABB",
"=.	c #D7C8B8",
"-.	c #DECFBF",
";.	c #D8C9B9",
">.	c #E3D3C2",
",.	c #C9BBAC",
"'.	c #D9CEC2",
").	c #7B7269",
"!.	c #AECBAD",
"~.	c #AFCCAE",
"{.	c #C0D9BF",
"].	c #F8F8F8",
"^.	c #B9B7B4",
"/.	c #8C8782",
"(.	c #C2B5A7",
"_.	c #BFB4A6",
":.	c #B8AB9D",
"<.	c #BAAD9E",
"[.	c #BEB0A2",
"}.	c #948A7F",
"|.	c #56504A",
"1.	c #293228",
"2.	c #B1CEB0",
"3.	c #B4D2B3",
"4.	c #C5DFC4",
"5.	c #BCBCBC",
"6.	c #221D1C",
"7.	c #5D5954",
"8.	c #79736C",
"9.	c #958C80",
"0.	c #8D8379",
"a.	c #988D82",
"b.	c #625B55",
"c.	c #5C715A",
"d.	c #B5D3B4",
"e.	c #C6E0C5",
"f.	c #B0B0B0",
"g.	c #120F0F",
"h.	c #494442",
"i.	c #625C59",
"j.	c #625A53",
"k.	c #6B625A",
"l.	c #4F4A49",
"m.	c #212120",
"n.	c #99BC97",
"o.	c #B5D2B4",
"p.	c #B6D4B5",
"q.	c #C7E1C6",
"r.	c #040000",
"s.	c #0C0303",
"t.	c #080000",
"u.	c #070000",
"v.	c #24211F",
"w.	c #4F6448",
"x.	c #A0C39D",
"y.	c #D0E7D0",
"z.	c #0E0C0C",
"A.	c #ECE4E2",
"B.	c #DED7D5",
"C.	c #D8D1D0",
"D.	c #E0DBD7",
"E.	c #E9E6E3",
"F.	c #FCFBFA",
"G.	c #030500",
"H.	c #A1C69E",
"I.	c #FBFBFB",
"J.	c #FDFDFD",
"K.	c #221E1E",
"L.	c #0B0505",
"M.	c #14100F",
"N.	c #090806",
"O.	c #020402",
"P.	c #A1C69F",
"Q.	c #B8D7B7",
"R.	c #B9D7B8",
"S.	c #C0D5C0",
"T.	c #BFD4BF",
"U.	c #D6EAD6",
"V.	c #FEFEFE",
"W.	c #010101",
"X.	c #3E4F39",
"Y.	c #5D7555",
"Z.	c #617959",
"`.	c #657E5C",
" +	c #6A8561",
".+	c #B7D5B6",
"++	c #F0FEEF",
"@+	c #FFFFFF",
"#+	c #0E0E0E",
"$+	c #657F5C",
"%+	c #A2C7A0",
"&+	c #F1FFF0",
"*+	c #303030",
"=+	c #3F5239",
"-+	c #637D5B",
";+	c #68835F",
">+	c #0B0B0B",
",+	c #C9C9C9",
"'+	c #5C5C5C",
")+	c #41533C",
"!+	c #66815E",
"~+	c #9FC49D",
"{+	c #B8D6B7",
"]+	c #434343",
"^+	c #BDBDBD",
"/+	c #96B892",
"(+	c #E8F4E6",
"_+	c #1B1B1B",
":+	c #A5B4A4",
"  . . + @ # . . . . . . . . . . . . . . .       ",
". $ % & * = - - - ; ; ; > > > , , ' ' ; ) .     ",
". ! ~ { ] ^ / ~ ( _ : < < [ } | 1 2 3 4 2 .     ",
". 5 _ 6 7 . 8 9 9 9 9 9 9 9 9 9 0 0 0 ! a .     ",
". 5 b c d . e f g g g g g g g f h 0 0 a 5 .     ",
". - / i j k . l m n % o p q r s $ 3 a 5 - .     ",
". = t u v w x . y z . A 9 0 0 0 0 9 0 - ; .     ",
". . B C D E F G x H I J f 0 0 0 h f 0 ; > .     ",
". . K L M N O P Q R S T . . . . , ( ( > , .     ",
". . U V W X Y Z `  ...+.@.#.$.. , , , , ' .     ",
". %.&.*.=.-.;.>.,.'.).+.!.~.{.. , , , , ]..     ",
". %.^./.(._.:.<.[.}.|.1.2.3.4.. , , , , ; .     ",
". 5.6.7.8.9.0.}.a.b.. c.3.d.e.. , , , , a .     ",
". > f.g.h.i.j.k.l.m.%.n.o.p.q.. , , , , , .     ",
". , , q r.s.t.u.. v.w.x.d.p.y.. , , , , , .     ",
". ' , z.A.B.C.D.E.F.G.H.p.p.q.. . . . I.J..     ",
". ' , K.L.+.M.%.N.. O.P.Q.Q.R.S.T.U.# J.V..     ",
". ]., a | W.X.Y.Z.`. +P.R..+R.Q.++. J.@+@+.     ",
". ].a , , ( #+X.Z.$+ +%+R.p.Q.&+. a @+@+@+.     ",
". 5 5 - ; > - *+=+-+;+P.R.p.&+>+J.@+@+@+1 .     ",
". ,+2 ].> , ' ' '+)+!+~+{+&+]+V.@+@+@+3 ^+.     ",
"  . . . . . . . . . )+/+(+. ^ . . . . . .       ",
"                    _+:+_+                      ",
"                      _+                        "};
