/* XPM */
static char * receive_bodies_selected_xpm[] = {
"24 24 193 2",
"  	c None",
". 	c #000000",
"+ 	c #2A2A2A",
"@ 	c #0F0F0F",
"# 	c #080808",
"$ 	c #E2E2E2",
"% 	c #C1C1C1",
"& 	c #9B9B9B",
"* 	c #070400",
"= 	c #B6B6B6",
"- 	c #F3F3F3",
"; 	c #F4F4F4",
"> 	c #F5F5F5",
", 	c #F6F6F6",
"' 	c #F7F7F7",
") 	c #DBDBDB",
"! 	c #F0F0F0",
"~ 	c #E4E4E4",
"{ 	c #3A3535",
"] 	c #FDFDFC",
"^ 	c #070707",
"/ 	c #E3E3E3",
"( 	c #E5E5E5",
"_ 	c #E6E6E6",
": 	c #E7E7E7",
"< 	c #E8E8E8",
"[ 	c #E9E9E9",
"} 	c #EAEAEA",
"| 	c #EBEBEB",
"1 	c #ECECEC",
"2 	c #EDEDED",
"3 	c #EEEEEE",
"4 	c #EFEFEF",
"5 	c #F2F2F2",
"6 	c #2D2929",
"7 	c #FDFAF8",
"8 	c #929292",
"9 	c #888888",
"0 	c #898989",
"a 	c #8A8A8A",
"b 	c #8B8B8B",
"c 	c #8C8C8C",
"d 	c #8D8D8D",
"e 	c #8E8E8E",
"f 	c #F1F1F1",
"g 	c #D9D9D9",
"h 	c #3A3636",
"i 	c #F9F1EA",
"j 	c #D0D0D0",
"k 	c #353131",
"l 	c #F9EEE4",
"m 	c #4F4D4A",
"n 	c #3F3F3F",
"o 	c #808080",
"p 	c #8F8F8F",
"q 	c #131313",
"r 	c #4E4A4A",
"s 	c #F9F0E4",
"t 	c #746C67",
"u 	c #FEFDFC",
"v 	c #EAE9E8",
"w 	c #0B0A09",
"x 	c #C7C7C7",
"y 	c #F3F2F2",
"z 	c #98948F",
"A 	c #F9EFE3",
"B 	c #A09489",
"C 	c #FEFDFD",
"D 	c #766D68",
"E 	c #736961",
"F 	c #A3A3A2",
"G 	c #0C0C0C",
"H 	c #909090",
"I 	c #E8E5E2",
"J 	c #97938E",
"K 	c #F6E9D8",
"L 	c #84817A",
"M 	c #FBF3EA",
"N 	c #908C86",
"O 	c #F1EDE7",
"P 	c #7B7975",
"Q 	c #878786",
"R 	c #060000",
"S 	c #E2DFDC",
"T 	c #A8A199",
"U 	c #F0E0CE",
"V 	c #C8BFB4",
"W 	c #D5CCBF",
"X 	c #DFD7CD",
"Y 	c #DAD3C9",
"Z 	c #DDCFC4",
"` 	c #928C84",
" .	c #050000",
"..	c #6B8661",
"+.	c #6C8562",
"@.	c #65815C",
"#.	c #919191",
"$.	c #030000",
"%.	c #D9D5D2",
"&.	c #D9CABB",
"*.	c #D7C8B8",
"=.	c #DECFBF",
"-.	c #D8C9B9",
";.	c #E3D3C2",
">.	c #C9BBAC",
",.	c #D9CEC2",
"'.	c #7B7269",
").	c #5B7950",
"!.	c #506B46",
"~.	c #F8F8F8",
"{.	c #B9B7B4",
"].	c #8C8782",
"^.	c #C2B5A7",
"/.	c #BFB4A6",
"(.	c #B8AB9D",
"_.	c #BAAD9E",
":.	c #BEB0A2",
"<.	c #948A7F",
"[.	c #56504A",
"}.	c #1D261A",
"|.	c #939393",
"1.	c #F9F9F9",
"2.	c #BDBDBD",
"3.	c #221D1C",
"4.	c #5D5954",
"5.	c #79736C",
"6.	c #958C80",
"7.	c #8D8379",
"8.	c #988D82",
"9.	c #625B55",
"0.	c #3F553A",
"a.	c #FAFAFA",
"b.	c #A8A8A8",
"c.	c #120F0F",
"d.	c #494442",
"e.	c #625C59",
"f.	c #625A53",
"g.	c #6B625A",
"h.	c #4F4A49",
"i.	c #212120",
"j.	c #688C60",
"k.	c #959595",
"l.	c #FBFBFB",
"m.	c #FCFCFC",
"n.	c #BCBCBC",
"o.	c #040000",
"p.	c #0C0303",
"q.	c #080000",
"r.	c #070000",
"s.	c #24211F",
"t.	c #859C82",
"u.	c #6B9063",
"v.	c #FDFDFD",
"w.	c #010000",
"x.	c #ECE4E2",
"y.	c #DED7D5",
"z.	c #D8D1D0",
"A.	c #E0DBD7",
"B.	c #E9E6E3",
"C.	c #FCFBFA",
"D.	c #030500",
"E.	c #FEFEFE",
"F.	c #201D1D",
"G.	c #0B0505",
"H.	c #14100F",
"I.	c #090806",
"J.	c #040503",
"K.	c #445B2C",
"L.	c #FFFFFF",
"M.	c #858585",
"N.	c #7A7A7A",
"O.	c #77A16E",
"P.	c #ACC8A9",
"Q.	c #B2CBB0",
"R.	c #ADC8AD",
"S.	c #AAC7A8",
"T.	c #818181",
"U.	c #DFDFDF",
"V.	c #CDCDCD",
"W.	c #709867",
"X.	c #A8C7A8",
"Y.	c #ABC7A8",
"Z.	c #D6D6D6",
"`.	c #C9C9C9",
" +	c #E1E1E1",
".+	c #CFCFCF",
"++	c #A5C4A3",
"@+	c #AFC8AD",
"#+	c #0F1308",
"$+	c #7F9F76",
"%+	c #A4C3A2",
"&+	c #6B9060",
"*+	c #698D60",
"  . . + @ # . . . . . . . . . . . . . . .       ",
". $ % & * = - - - ; ; ; > > > , , ' ' ; ) .     ",
". ! ~ { ] ^ / ~ ( _ : < < [ } | 1 2 3 4 2 .     ",
". 5 _ 6 7 . 8 9 0 0 a a b b c c d d e ! f .     ",
". 5 g h i . j _ : < [ } | 1 1 2 3 4 ! f 5 .     ",
". - / k l m . n # o b c c d d d e p p 5 - .     ",
". = q r s t u . v w . x 2 3 4 4 ! f 5 - ; .     ",
". . y z A B C D u E F G d e p p p H H ; > .     ",
". . I J K L M N O P Q R . . . . 3 - ; > , .     ",
". . S T U V W X Y Z `  ...+.@.. a #.8 , ' .     ",
". $.%.&.*.=.-.;.>.,.'. .).).!.. ( ; ' ' ~..     ",
". $.{.].^./.(._.:.<.[.}.).).!.. 9 #.|.~.1..     ",
". 2.3.4.5.6.7.<.8.9.. 0.).).!.. _ , 1.a.a..     ",
". , b.c.d.e.f.g.h.i.$.j.).).!.. 0 8 k.l.m..     ",
". ' 2 n.o.p.q.r.. s.t.u.).).!.. _ , 1.l.v..     ",
". ' 3 w.x.y.z.A.B.C.D.u.).).!.. . . . . E..     ",
". ~.! F.G. .H.$.I.. J.u.).).).!.!.K.. : L..     ",
". ~.f M.N.. O.P.Q.R.S.u.).).).).K.. T.1 L..     ",
". 5 5 1 U.V.. W.S.X.Y.u.).).).K.. Z.} ~.1 .     ",
". `.2 ' 3  +.+. W.++@+u.).).K.. Z.} ~.2 2..     ",
"  . . . . . . . #+$+%+u.).K.. . . . . . .       ",
"                  . &+*+K..                     ",
"                    . K..                       ",
"                      .                         "};
