/* XPM */
static char * receive_headers_xpm[] = {
"24 24 123 2",
"  	c None",
". 	c #000000",
"+ 	c #E2E2E2",
"@ 	c #F2F2F2",
"# 	c #F3F3F3",
"$ 	c #F4F4F4",
"% 	c #F5F5F5",
"& 	c #F6F6F6",
"* 	c #F7F7F7",
"= 	c #DBDBDB",
"- 	c #F0F0F0",
"; 	c #E0E0E0",
"> 	c #E1E1E1",
", 	c #E3E3E3",
"' 	c #E4E4E4",
") 	c #E5E5E5",
"! 	c #E6E6E6",
"~ 	c #E7E7E7",
"{ 	c #E8E8E8",
"] 	c #E9E9E9",
"^ 	c #EAEAEA",
"/ 	c #EBEBEB",
"( 	c #ECECEC",
"_ 	c #EDEDED",
": 	c #EEEEEE",
"< 	c #EFEFEF",
"[ 	c #314E6C",
"} 	c #304D6B",
"| 	c #F1F1F1",
"1 	c #304C6A",
"2 	c #2E4A66",
"3 	c #2D4965",
"4 	c #DADADA",
"5 	c #CACACA",
"6 	c #C0C0C0",
"7 	c #C1C1C1",
"8 	c #C2C2C2",
"9 	c #C3C3C3",
"0 	c #C4C4C4",
"a 	c #C6C6C6",
"b 	c #D0D0D0",
"c 	c #353535",
"d 	c #1C1C1C",
"e 	c #43543D",
"f 	c #4D6146",
"g 	c #4D6247",
"h 	c #5A7257",
"i 	c #71916E",
"j 	c #748A72",
"k 	c #8DB389",
"l 	c #3D4E39",
"m 	c #5E7656",
"n 	c #607857",
"o 	c #93B690",
"p 	c #AECBAD",
"q 	c #AFCCAE",
"r 	c #C0D9BF",
"s 	c #F8F8F8",
"t 	c #1B1B1B",
"u 	c #5E7756",
"v 	c #617A59",
"w 	c #99BC97",
"x 	c #B1CEB0",
"y 	c #B4D2B3",
"z 	c #C5DFC4",
"A 	c #0B0B0B",
"B 	c #607858",
"C 	c #637C5B",
"D 	c #9CBF99",
"E 	c #B5D3B4",
"F 	c #C6E0C5",
"G 	c #647D5B",
"H 	c #9DC19B",
"I 	c #B5D2B4",
"J 	c #B6D4B5",
"K 	c #C7E1C6",
"L 	c #607958",
"M 	c #657F5C",
"N 	c #A0C39D",
"O 	c #D0E7D0",
"P 	c #627B59",
"Q 	c #67815E",
"R 	c #A1C69E",
"S 	c #FBFBFB",
"T 	c #FDFDFD",
"U 	c #0E0E0E",
"V 	c #4C6046",
"W 	c #4D6246",
"X 	c #68835F",
"Y 	c #A1C69F",
"Z 	c #B8D7B7",
"` 	c #B9D7B8",
" .	c #C0D5C0",
"..	c #BFD4BF",
"+.	c #D6EAD6",
"@.	c #080808",
"#.	c #FEFEFE",
"$.	c #010101",
"%.	c #3E4F39",
"&.	c #5D7555",
"*.	c #617959",
"=.	c #657E5C",
"-.	c #6A8561",
";.	c #B7D5B6",
">.	c #F0FEEF",
",.	c #FFFFFF",
"'.	c #A2C7A0",
").	c #F1FFF0",
"!.	c #303030",
"~.	c #3F5239",
"{.	c #637D5B",
"].	c #C9C9C9",
"^.	c #5C5C5C",
"/.	c #41533C",
"(.	c #66815E",
"_.	c #9FC49D",
":.	c #B8D6B7",
"<.	c #434343",
"[.	c #BDBDBD",
"}.	c #96B892",
"|.	c #E8F4E6",
"1.	c #070707",
"2.	c #A5B4A4",
"  . . . . . . . . . . . . . . . . . . . .       ",
". + @ @ @ @ # # # $ $ $ % % % & & * * $ = .     ",
". - ; ; > + , ' ) ! ~ { { ] ^ / ( _ : < _ .     ",
". @ > [ [ [ [ } } } } } } } } } [ [ [ - | .     ",
". @ + [ [ [ 1 2 3 3 3 3 3 3 3 2 1 [ [ | @ .     ",
". # , , , + 4 5 6 6 7 8 9 0 a b + : | @ # .     ",
". # ' [ [ [ [ } [ [ [ [ } [ [ [ [ } [ # $ .     ",
". # ) [ [ [ 1 2 [ [ [ 1 2 [ [ [ 1 2 [ $ % .     ",
". $ ! & & ) ) c . . . . . . . . & ) ) % & .     ",
". $ & & & & & d e f g h i j k . & & & & * .     ",
". % & & & & & d l m n o p q r . & & & & s .     ",
". % & & & & & t l u v w x y z . & & & & $ .     ",
". $ & & & & & A l B C D y E F . & & & & | .     ",
". % & & & & & . l B G H I J K . & & & & & .     ",
". & & & & & & . l L M N E J O . & & & & & .     ",
". * & ) . . . . l P Q R J J K . . . . S T .     ",
". * & ) U V V V W C X Y Z Z `  ...+.@.T #..     ",
". s & | / $.%.&.*.=.-.Y ` ;.` Z >.. T ,.,..     ",
". s | & & ) U %.*.M -.'.` J Z ).. | ,.,.,..     ",
". @ @ # $ % # !.~.{.X Y ` J ).A T ,.,.,.( .     ",
". ]._ s % & * * ^./.(._.:.).<.#.,.,.,.: [..     ",
"  . . . . . . . . . /.}.|.. 1.. . . . . .       ",
"                    t 2.t                       ",
"                      t                         "};
