/* XPM */
static char * receive_headers_xpm[] = {
"24 24 103 2",
"  	c None",
". 	c #000000",
"+ 	c #E2E2E2",
"@ 	c #F2F2F2",
"# 	c #F3F3F3",
"$ 	c #F4F4F4",
"% 	c #F5F5F5",
"& 	c #F6F6F6",
"* 	c #F7F7F7",
"= 	c #DBDBDB",
"- 	c #F0F0F0",
"; 	c #E0E0E0",
"> 	c #E1E1E1",
", 	c #E3E3E3",
"' 	c #E4E4E4",
") 	c #E5E5E5",
"! 	c #E6E6E6",
"~ 	c #E7E7E7",
"{ 	c #E8E8E8",
"] 	c #E9E9E9",
"^ 	c #EAEAEA",
"/ 	c #EBEBEB",
"( 	c #ECECEC",
"_ 	c #EDEDED",
": 	c #EEEEEE",
"< 	c #EFEFEF",
"[ 	c #868686",
"} 	c #878787",
"| 	c #888888",
"1 	c #898989",
"2 	c #8A8A8A",
"3 	c #8B8B8B",
"4 	c #8C8C8C",
"5 	c #8D8D8D",
"6 	c #8E8E8E",
"7 	c #F1F1F1",
"8 	c #8F8F8F",
"9 	c #909090",
"0 	c #858585",
"a 	c #C1D6BD",
"b 	c #AEC5A8",
"c 	c #A6BFA0",
"d 	c #778E6F",
"e 	c #6B8661",
"f 	c #6C8562",
"g 	c #65815C",
"h 	c #919191",
"i 	c #929292",
"j 	c #DDDDDD",
"k 	c #BDD3B8",
"l 	c #AEC8AD",
"m 	c #ABC7AA",
"n 	c #698D60",
"o 	c #5B7950",
"p 	c #506B46",
"q 	c #F8F8F8",
"r 	c #838383",
"s 	c #BFD4BB",
"t 	c #ABC7A8",
"u 	c #A8C6A5",
"v 	c #6B9063",
"w 	c #939393",
"x 	c #F9F9F9",
"y 	c #DEDEDE",
"z 	c #C2D7BE",
"A 	c #A7C5A4",
"B 	c #FAFAFA",
"C 	c #848484",
"D 	c #959595",
"E 	c #FBFBFB",
"F 	c #FCFCFC",
"G 	c #AAC6A7",
"H 	c #A9C7A6",
"I 	c #FDFDFD",
"J 	c #FEFEFE",
"K 	c #DADADA",
"L 	c #8CA782",
"M 	c #B1CDAE",
"N 	c #B4CEB1",
"O 	c #B0CAAD",
"P 	c #AAC7A8",
"Q 	c #ACC8A9",
"R 	c #445B2C",
"S 	c #FFFFFF",
"T 	c #7A7A7A",
"U 	c #77A16E",
"V 	c #B2CBB0",
"W 	c #ADC8AD",
"X 	c #818181",
"Y 	c #DFDFDF",
"Z 	c #CDCDCD",
"` 	c #709867",
" .	c #A8C7A8",
"..	c #D6D6D6",
"+.	c #C9C9C9",
"@.	c #CFCFCF",
"#.	c #A5C4A3",
"$.	c #AFC8AD",
"%.	c #BDBDBD",
"&.	c #0F1308",
"*.	c #7F9F76",
"=.	c #A4C3A2",
"-.	c #6B9060",
"  . . . . . . . . . . . . . . . . . . . .       ",
". + @ @ @ @ # # # $ $ $ % % % & & * * $ = .     ",
". - ; ; > + , ' ) ! ~ { { ] ^ / ( _ : < _ .     ",
". @ > [ [ } } | 1 1 2 2 3 3 4 4 5 5 6 - 7 .     ",
". @ + , , ' ) ! ~ { ] ^ / ( ( _ : < - 7 @ .     ",
". # , } | | 1 1 2 2 3 4 4 5 5 5 6 8 8 @ # .     ",
". # ' ) ! ~ ~ { ] ^ / ( _ : < < - 7 @ # $ .     ",
". # ) 1 1 2 2 2 3 4 4 5 5 6 8 8 8 9 9 $ % .     ",
". $ ! ~ { ] ) . . . . . . . . . : # $ % & .     ",
". $ ~ 2 2 2 0 . a b c d e f g . 2 h i & * .     ",
". % { ] ^ ] j . k l m n o o p . ) $ * * q .     ",
". % ] 3 4 2 r . s t u v o o p . | h w q x .     ",
". % ^ / ( / y . z t A v o o p . ! & x B B .     ",
". & / 4 5 3 C . z t u v o o p . 1 i D E F .     ",
". * _ ( ( / y . z G H v o o p . ! & x E I .     ",
". * : . . . . . z u t v o o p . . . . . J .     ",
". q - K . L M N O P Q v o o o p p R . ~ S .     ",
". q 7 0 T . U Q V W P v o o o o R . X ( S .     ",
". @ @ ( Y Z . ` P  .t v o o o R . ..^ q ( .     ",
". +._ * : > @.. ` #.$.v o o R . ..^ q _ %..     ",
"  . . . . . . . &.*.=.v o R . . . . . . .       ",
"                  . -.n R .                     ",
"                    . R .                       ",
"                      .                         "};
