/* XPM */
static char * reply3_xpm[] = {
"24 24 165 2",
"  	c None",
". 	c #000000",
"+ 	c #FFFFFF",
"@ 	c #FBE73B",
"# 	c #F2B64D",
"$ 	c #FCEB3D",
"% 	c #F7B544",
"& 	c #5D502C",
"* 	c #F9F9F8",
"= 	c #FCE93B",
"- 	c #F7B545",
"; 	c #6C5F34",
"> 	c #EFEFEF",
", 	c #FAE43A",
"' 	c #F4B244",
") 	c #605737",
"! 	c #222222",
"~ 	c #F9DF39",
"{ 	c #F3AF42",
"] 	c #625637",
"^ 	c #F7F7F7",
"/ 	c #F9DC38",
"( 	c #EFB44D",
"_ 	c #665A32",
": 	c #F8D837",
"< 	c #F0A93F",
"[ 	c #655930",
"} 	c #E1E1E1",
"| 	c #C1C1C1",
"1 	c #CBCBCB",
"2 	c #FAFAFA",
"3 	c #F6D236",
"4 	c #EDA43E",
"5 	c #5C5130",
"6 	c #808000",
"7 	c #FCFCFC",
"8 	c #ADADAD",
"9 	c #696969",
"0 	c #898989",
"a 	c #DDDDDD",
"b 	c #D7AE74",
"c 	c #61562F",
"d 	c #F8F8F8",
"e 	c #B9B9B9",
"f 	c #363932",
"g 	c #545E46",
"h 	c #2B2E26",
"i 	c #4F4115",
"j 	c #1A1A1A",
"k 	c #E7E7E7",
"l 	c #808080",
"m 	c #FFE8B7",
"n 	c #535353",
"o 	c #2D2F2A",
"p 	c #6E7C5D",
"q 	c #566049",
"r 	c #B8B8B7",
"s 	c #0B0B0B",
"t 	c #0D0D0D",
"u 	c #666666",
"v 	c #2B3024",
"w 	c #72805F",
"x 	c #5B5B5B",
"y 	c #FBFBFB",
"z 	c #E3E3E3",
"A 	c #F6F6F6",
"B 	c #C0C0C0",
"C 	c #F9E7C2",
"D 	c #262626",
"E 	c #7A8A64",
"F 	c #627347",
"G 	c #747474",
"H 	c #BCBCBC",
"I 	c #8D8D8D",
"J 	c #ACACAC",
"K 	c #D1D1D1",
"L 	c #CCCCCC",
"M 	c #030303",
"N 	c #E9D7AE",
"O 	c #161616",
"P 	c #A2B783",
"Q 	c #586C33",
"R 	c #282828",
"S 	c #656565",
"T 	c #797979",
"U 	c #0A0A0A",
"V 	c #545454",
"W 	c #7F7F7F",
"X 	c #AFA796",
"Y 	c #F9E8C3",
"Z 	c #B0C78E",
"` 	c #6B8637",
" .	c #374026",
"..	c #8F8F8F",
"+.	c #C6C6C6",
"@.	c #0A0C05",
"#.	c #3F492B",
"$.	c #D4D4D4",
"%.	c #F2E5C8",
"&.	c #323232",
"*.	c #171717",
"=.	c #A5B98B",
"-.	c #8CA85B",
";.	c #627B32",
">.	c #252B19",
",.	c #131313",
"'.	c #14190A",
").	c #668034",
"!.	c #2C351B",
"~.	c #585858",
"{.	c #1C1E1A",
"].	c #E0CFAB",
"^.	c #FBE9C3",
"/.	c #3E3E3E",
"(.	c #798668",
"_.	c #B4C896",
":.	c #89A553",
"<.	c #7D9C42",
"[.	c #7C9B40",
"}.	c #283214",
"|.	c #929291",
"1.	c #FFE9BC",
"2.	c #F3DEB2",
"3.	c #757575",
"4.	c #B6C4A9",
"5.	c #BECFA4",
"6.	c #9DB672",
"7.	c #93AE63",
"8.	c #91AD5F",
"9.	c #819A57",
"0.	c #3F4733",
"a.	c #5F5F5F",
"b.	c #F6EEDE",
"c.	c #515250",
"d.	c #6E7867",
"e.	c #C9D7BC",
"f.	c #D1DEBF",
"g.	c #CADAB4",
"h.	c #BFD3A4",
"i.	c #BAD09D",
"j.	c #ACBD96",
"k.	c #5C6551",
"l.	c #878787",
"m.	c #FFEEC9",
"n.	c #C3C3C3",
"o.	c #5D5F5C",
"p.	c #6B7562",
"q.	c #AFBEA0",
"r.	c #C5D6B0",
"s.	c #CADAB5",
"t.	c #BCD1A0",
"u.	c #AFC198",
"v.	c #575D50",
"w.	c #878786",
"x.	c #292929",
"y.	c #232423",
"z.	c #20221E",
"A.	c #20231C",
"B.	c #3C4235",
"C.	c #AFC199",
"D.	c #595F53",
"E.	c #141413",
"F.	c #3D3D3D",
"G.	c #737373",
"H.	c #141514",
"        . . . . . . . . . .             . .     ",
"        . + + + + + + + + . .         . @ # .   ",
"        . + + + + + + + + . + .     . $ % & .   ",
"        . + . + . . . . + . + * . . = - ; .     ",
"        . + + + + + + + + . > + . , ' ) .       ",
"        . + . . . . . . + ! . . ~ { ] .         ",
"        . + + + + + + + ^ + . / ( _ .           ",
"        . + . . . . . + + . : < [ . .           ",
"      . . + + + } | 1 2 . 3 4 5 . + .           ",
"    . 6 . + . 7 8 9 0 a . b c . d + 6 .         ",
"    . . . + + e f g h . i . j k + . . . l       ",
"    . m . + n o p q r . . + s . + . m . l       ",
"    . m m t u v w x y z A + + B . m m . l       ",
"    . m m C D E F G H I J K L M m m m . l       ",
"    . m m N O P Q R S T U V W X m m m . l       ",
"    . m m Y D Z `  ...+.@.#.0 $.%.m m . l       ",
"    . m m &.*.=.-.;.>.,.'.).!.~.{.].m . l       ",
"    . m . ^./.(._.:.<.[.[.[.` }.|.{.1.. l       ",
"    . . m 2.3.{.4.5.6.7.8.8.8.9.0.a.{.. l       ",
"    . m m m b.c.d.e.f.g.h.i.i.j.k.l.m.. l       ",
"    . . . . D n.o.p.q.r.s.t.u.v.w.{.. . l       ",
"        l l l 9 x.y.z.A.B.C.D.E.F.G.l l l       ",
"                        H.{..                   ",
"                          {.                    "};
