/* XPM */
static char * rot13_xpm[] = {
"24 24 195 2",
"  	c None",
". 	c #000000",
"+ 	c #636024",
"@ 	c #ADA93F",
"# 	c #73702A",
"$ 	c #E3D151",
"% 	c #CE9141",
"& 	c #786927",
"* 	c #FACB53",
"= 	c #FF924A",
"- 	c #F68245",
"; 	c #CFB147",
"> 	c #896A29",
", 	c #E8A245",
"' 	c #FD8646",
") 	c #FF7845",
"! 	c #FF7B45",
"~ 	c #FF8848",
"{ 	c #DD8140",
"] 	c #220B04",
"^ 	c #9A3414",
"/ 	c #D9552A",
"( 	c #F6713F",
"_ 	c #F4713E",
": 	c #FB7542",
"< 	c #FE7745",
"[ 	c #BD5933",
"} 	c #7B1A09",
"| 	c #CB4621",
"1 	c #F06A3A",
"2 	c #C34E23",
"3 	c #9F4319",
"4 	c #A84E1E",
"5 	c #D0672D",
"6 	c #FB7743",
"7 	c #72200C",
"8 	c #BE421D",
"9 	c #9C3B17",
"0 	c #EA753A",
"a 	c #292827",
"b 	c #262625",
"c 	c #292929",
"d 	c #2C2C2C",
"e 	c #2B2B2B",
"f 	c #2F2F2F",
"g 	c #555555",
"h 	c #373737",
"i 	c #232323",
"j 	c #222222",
"k 	c #585959",
"l 	c #363434",
"m 	c #0F0402",
"n 	c #1A0E0A",
"o 	c #09090A",
"p 	c #030506",
"q 	c #020405",
"r 	c #15100D",
"s 	c #2C1912",
"t 	c #0E0705",
"u 	c #080808",
"v 	c #DEDEDE",
"w 	c #F6F6F6",
"x 	c #B7B7B7",
"y 	c #494949",
"z 	c #111111",
"A 	c #7F7F7F",
"B 	c #434343",
"C 	c #141515",
"D 	c #161919",
"E 	c #1F2021",
"F 	c #101010",
"G 	c #F0F0F0",
"H 	c #A5A5A5",
"I 	c #171717",
"J 	c #1F1F1F",
"K 	c #989898",
"L 	c #191919",
"M 	c #252525",
"N 	c #797979",
"O 	c #F4F4F4",
"P 	c #3D3D3D",
"Q 	c #1E1E1E",
"R 	c #898989",
"S 	c #FBFBFB",
"T 	c #2E2E2E",
"U 	c #0B0B0B",
"V 	c #1B1D1E",
"W 	c #1A1A1B",
"X 	c #D9D9D9",
"Y 	c #1D1B1A",
"Z 	c #231A17",
"` 	c #070403",
" .	c #E8E8E8",
"..	c #9E9E9E",
"+.	c #1D1D1D",
"@.	c #8B8B8B",
"#.	c #08090A",
"$.	c #080809",
"%.	c #EBEBEB",
"&.	c #8A8A89",
"*.	c #3D3D3E",
"=.	c #9E9FA1",
"-.	c #151515",
";.	c #101011",
">.	c #332F2B",
",.	c #0C0A08",
"'.	c #C8CBCC",
").	c #280E06",
"!.	c #5D2815",
"~.	c #7E7975",
"{.	c #E4E4E4",
"].	c #C6C6C6",
"^.	c #E0E0E0",
"/.	c #252524",
"(.	c #1E1914",
"_.	c #1C1C1B",
":.	c #FFFFFF",
"<.	c #707171",
"[.	c #0F0F0A",
"}.	c #27221A",
"|.	c #080706",
"1.	c #A2A3A4",
"2.	c #020100",
"3.	c #AA6621",
"4.	c #49290B",
"5.	c #080504",
"6.	c #979491",
"7.	c #9C9C9C",
"8.	c #0E1010",
"9.	c #8E8E8E",
"0.	c #030201",
"a.	c #8E5922",
"b.	c #231B12",
"c.	c #F3F4F5",
"d.	c #7F8187",
"e.	c #544B17",
"f.	c #D18F41",
"g.	c #F2F3F4",
"h.	c #553212",
"i.	c #FF9C3D",
"j.	c #431904",
"k.	c #2A2A29",
"l.	c #0A0A0A",
"m.	c #EFEFEF",
"n.	c #939799",
"o.	c #270800",
"p.	c #1C0E0B",
"q.	c #DFE1E2",
"r.	c #828282",
"s.	c #0F0802",
"t.	c #0E0603",
"u.	c #9C9D9E",
"v.	c #E9EAEB",
"w.	c #322921",
"x.	c #2C1A09",
"y.	c #676869",
"z.	c #353C40",
"A.	c #982E08",
"B.	c #FC571B",
"C.	c #0E0200",
"D.	c #CBCBCB",
"E.	c #D6D7D8",
"F.	c #7C8589",
"G.	c #60230B",
"H.	c #74320E",
"I.	c #586063",
"J.	c #DBDDDE",
"K.	c #171718",
"L.	c #160C08",
"M.	c #151718",
"N.	c #B4B4B5",
"O.	c #DFDFDF",
"P.	c #6D6E70",
"Q.	c #2E1C0A",
"R.	c #6F3416",
"S.	c #441509",
"T.	c #0F0D0D",
"U.	c #B5B5B5",
"V.	c #2A2A2A",
"W.	c #010101",
"X.	c #181210",
"Y.	c #160E0B",
"Z.	c #6E2F18",
"`.	c #ED6A34",
" +	c #271109",
".+	c #1E1614",
"++	c #120A08",
"@+	c #673F1B",
"#+	c #4E341C",
"$+	c #100D08",
"%+	c #343332",
"&+	c #414141",
"*+	c #2B1C0D",
"=+	c #3B3B3C",
"-+	c #343434",
"                                . .             ",
"                              . + @             ",
"                            . # $ % . .         ",
"                          . & * = - ; ; . .     ",
"                        . > , ' ) ! ~ ~ ~ { .   ",
"                        ] ^ / ) ) ( _ : ) < [ . ",
"                          . } | 1 2 3 4 5 6 ) . ",
"                            . 7 8 9 . . . 0 ) . ",
"a b c d e f g       h i j c k l m n o p q r s t ",
"u v w v w x y y   z A w v w B C D v w v w v v E ",
"F G H I J K w L M N O P Q R S T U V W w X Y Z ` ",
"F  ...+.j @.v #.$.%.&.*.=.-.O v ;.>.,.v '.).!.~.",
"F v {.].^.v /.(._.:.<.[.}.|.v 1.2.3.4.w v 5.6.  ",
"F  .7.8.v 9.0.a.b.c.d.e.f.r g.v h.i.j.v v k.    ",
"l.m.n.o.p.q.r.s.t.u.v.w.x.y.:.z.A.B.C.w D.T     ",
"u E.F.G.H.I.J.K.L.M.N.v w O.P.Q.R.S.T.v U.V.    ",
"W.X.Y.Z.`. +.+++@+#+$+%+&+I . *+    =+-.I -+    ",
". ) 6 5 4 3 2 1 | } .                           ",
". [ < ) : _ ( ) ) / ^ ]                         ",
"  . { ~ ~ ~ ! ) ' , > .                         ",
"    . . ; ; - = * & .                           ",
"        . . % $ # .                             ",
"            @ + .                               ",
"            . .                                 "};
