/* XPM */
static char * score_xpm[] = {
"24 24 35 1",
" 	c None",
".	c #000000",
"+	c #FFFFFF",
"@	c #E1E1E1",
"#	c #EBEBEB",
"$	c #EDEDED",
"%	c #D2D2D2",
"&	c #EEEEEE",
"*	c #EFEFEF",
"=	c #D3D3D3",
"-	c #F0F0F0",
";	c #D4D4D4",
">	c #D5D5D5",
",	c #F1F1F1",
"'	c #F2F2F2",
")	c #F3F3F3",
"!	c #ECECEC",
"~	c #F4F4F4",
"{	c #F5F5F5",
"]	c #DBDBDB",
"^	c #F6F6F6",
"/	c #F7F7F7",
"(	c #F8F8F8",
"_	c #DCDCDC",
":	c #DDDDDD",
"<	c #F9F9F9",
"[	c #FAFAFA",
"}	c #DEDEDE",
"|	c #DFDFDF",
"1	c #D6D6D6",
"2	c #D7D7D7",
"3	c #D8D8D8",
"4	c #D9D9D9",
"5	c #DADADA",
"6	c #E0E0E0",
"                        ",
"                        ",
"                        ",
"                        ",
"                        ",
"        .......         ",
"        .++++@.         ",
"        .+#.$%.         ",
"        .+..&%.         ",
"        .+$.*=.         ",
"   ......+&.-;.         ",
"   .++++++...>......    ",
"   .+...$&*,')+++++.    ",
"   .+#!.&*-,)~{...].    ",
"   .+...*-,'){^/(._.    ",
"   .+.&*-,')~{/(..:.    ",
"   .+...,')~{^/<[.}.    ",
"   .+*-,')~{^/(...|.    ",
"   .@=;>123445]_:|6.    ",
"   .................    ",
"                        ",
"                        ",
"                        ",
"                        "};
