/* XPM */
static char * send_queued_art_xpm[] = {
"24 24 62 1",
" 	c None",
".	c #000000",
"+	c #C4D4E3",
"@	c #2A435B",
"#	c #A6BED5",
"$	c #3F6588",
"%	c #A3BCD4",
"&	c #AAC1D7",
"*	c #ABC2D8",
"=	c #29425A",
"-	c #B4B4B4",
";	c #F8F8F8",
">	c #EBEBEB",
",	c #D9D9D9",
"'	c #AEC4D9",
")	c #C2C2C2",
"!	c #CBCBCB",
"~	c #E5E5E5",
"{	c #BABABA",
"]	c #E9E9E9",
"^	c #E4E4E4",
"/	c #DDDDDD",
"(	c #BDBDBD",
"_	c #CFCFCF",
":	c #E6E6E6",
"<	c #989898",
"[	c #828282",
"}	c #7F7F7F",
"|	c #6892B9",
"1	c #2D4760",
"2	c #C0C0C0",
"3	c #787878",
"4	c #B1B1B1",
"5	c #E7E7E7",
"6	c #636363",
"7	c #5A5A5A",
"8	c #6B6B6B",
"9	c #E8E8E8",
"0	c #B3B3B3",
"a	c #FFFFFF",
"b	c #F2F2F2",
"c	c #E0E0E0",
"d	c #C8C8C8",
"e	c #D1D1D1",
"f	c #D6D6D6",
"g	c #818181",
"h	c #FAFAFA",
"i	c #E3E3E3",
"j	c #A7A7A7",
"k	c #8F8F8F",
"l	c #8C8C8C",
"m	c #D3D3D3",
"n	c #848484",
"o	c #C6C6C6",
"p	c #808080",
"q	c #FDFDFD",
"r	c #D5D5D5",
"s	c #EFEFEF",
"t	c #6D6D6D",
"u	c #767676",
"v	c #F5F5F5",
"w	c #C3C3C3",
"       ..               ",
"      .+@.              ",
"     .+#$@.             ",
"    .+%&$$@.            ",
" ......*=.....          ",
" .-;>,.'=.)!~{...       ",
" .;]^/.%=.(_~:.+@.      ",
" .;<[}.|1.234.+#$@.     ",
" .;]]5....),.+%&$$@.    ",
" .;67]8[-9.....*=.....  ",
" .;]]]]]].0abc.'=.deaf. ",
" .;<[[][g.aahb.%=._iaa. ",
" .;]]]]]9.ajkl.|1.mnoa. ",
" .;677]8p.aaaq....rsaa. ",
" .;]]]]]5.at6aukoaokaa. ",
" .;<[[][g.aaaaaaaaaaaa. ",
" .v]]]]]9.ajkkakkoa<ka. ",
" .w]]]]]9.aaaaaaaaaaaa. ",
"  ........at66aukoaoka. ",
"         .aaaaaaaaaaaa. ",
"         .ajkkakkoa<ka. ",
"         .aaaaaaaaaaaa. ",
"         .faaaaaaaaaaf. ",
"         .............. "};
