/* XPM */
static char * send_queued_mail_xpm[] = {
"24 24 27 1",
" 	c None",
".	c #000000",
"+	c #C4D4E3",
"@	c #2A435B",
"#	c #A6BED5",
"$	c #3F6588",
"%	c #A3BCD4",
"&	c #AAC1D7",
"*	c #ABC2D8",
"=	c #29425A",
"-	c #FFFFFF",
";	c #F2F2F2",
">	c #E0E0E0",
",	c #AEC4D9",
"'	c #C8C8C8",
")	c #D1D1D1",
"!	c #FAFAFA",
"~	c #CFCFCF",
"{	c #E3E3E3",
"]	c #FCFCFC",
"^	c #FBFBFB",
"/	c #6892B9",
"(	c #2D4760",
"_	c #D3D3D3",
":	c #EDEDED",
"<	c #FDFDFD",
"[	c #EFEFEF",
"                        ",
"                        ",
"      ..                ",
"     .+@.               ",
"    .+#$@.              ",
"   .+%&$$@.             ",
"......*=....... ..      ",
"..-;>.,=.')--...+@.     ",
".-.!;.%=.~{-.].+#$@.    ",
".--.^./(._:.-.+%&$$@.   ",
".---............*=......",
".----.---..--;>.,=.')-..",
".---.-.-..-.-!;.%=.~{.-.",
".--.---.-.--.-^./(._.--.",
".-.------.---.<.....[--.",
"..-------.----.---.----.",
"..........---.-.-.-.---.",
"         .--.---.---.--.",
"         .-.---------.-.",
"         ..-----------..",
"         ...............",
"                        ",
"                        ",
"                        "};
