/* XPM */
static char * send_xpm[] = {
"24 24 6 1",
" 	c None",
".	c #000000",
"+	c #FFFFFF",
"@	c #FF9966",
"#	c #FF6633",
"$	c #999999",
"                        ",
"            ..          ",
"            .+..        ",
"            .@+..       ",
"       ......@++.       ",
" .......#####@@@#...... ",
" ..++++......@##.++++.. ",
" .+.++++++++.@#.++++.+. ",
" .++.+++++++.#.++++.++. ",
" .+++.++++++..++++.+++. ",
" .++++.++++++++++.++++. ",
" .+++++.++++++++.+++++. ",
" .++++++.++++++.++++++. ",
" .++++++..++++..++++++. ",
" .+++++.++.++.++.+++++.$",
" .++++.++++..++++.++++.$",
" .+++.++++++++++++.+++.$",
" .++.++++++++++++++.++.$",
" .+.++++++++++++++++.+.$",
" ..++++++++++++++++++..$",
" ...................... ",
"$$$$$$$$$$$$$$$$$$$$$$$ ",
"$$$$$$$$$$$$$$$$$$$$$$$ ",
"                        "};
