/* XPM */
static char * send_queue_xpm[] = {
"24 24 146 2",
"  	c None",
". 	c #3A3A3A",
"+ 	c #505050",
"@ 	c #524A39",
"# 	c #38301E",
"$ 	c #1C1915",
"% 	c #3D3D3D",
"& 	c #9E9E9E",
"* 	c #D4D4D4",
"= 	c #E6E6E6",
"- 	c #C8BBA1",
"; 	c #D9BC83",
"> 	c #BA9F68",
", 	c #766645",
"' 	c #1E1A14",
") 	c #4C4C4C",
"! 	c #D7D7D7",
"~ 	c #F3F3F3",
"{ 	c #F5F5F5",
"] 	c #DDDDDD",
"^ 	c #2E291F",
"/ 	c #DCB361",
"( 	c #DEB666",
"_ 	c #D6B36D",
": 	c #AD9360",
"< 	c #26211A",
"[ 	c #3C3C3C",
"} 	c #F6F6F6",
"| 	c #ECECEC",
"1 	c #E3E3E3",
"2 	c #363129",
"3 	c #D1AA5C",
"4 	c #DAB160",
"5 	c #D5AE5F",
"6 	c #D4B26E",
"7 	c #AE9461",
"8 	c #000000",
"9 	c #040404",
"0 	c #969696",
"a 	c #EBEBEB",
"b 	c #FAFAFA",
"c 	c #FBFBFB",
"d 	c #2E2A22",
"e 	c #CAA45A",
"f 	c #E4BA65",
"g 	c #E2B864",
"h 	c #CEA85B",
"i 	c #D1B171",
"j 	c #67583B",
"k 	c #020202",
"l 	c #FEFEFE",
"m 	c #848484",
"n 	c #D2D2D2",
"o 	c #F4F4F4",
"p 	c #F1F1F1",
"q 	c #FDFDFD",
"r 	c #E2E2E2",
"s 	c #1F1D17",
"t 	c #C7A158",
"u 	c #E3B965",
"v 	c #D8B160",
"w 	c #D4AD60",
"x 	c #A58F62",
"y 	c #7A7975",
"z 	c #E9E9E9",
"A 	c #FFFFFF",
"B 	c #707070",
"C 	c #E5E5E5",
"D 	c #E1E1E1",
"E 	c #F9F9F9",
"F 	c #AFAFAF",
"G 	c #090908",
"H 	c #A18347",
"I 	c #E3B964",
"J 	c #E1B864",
"K 	c #D4AD5E",
"L 	c #C39F56",
"M 	c #C0AA7C",
"N 	c #5E594E",
"O 	c #DEDEDE",
"P 	c #4A4A4A",
"Q 	c #D0D0D0",
"R 	c #5A5A5A",
"S 	c #585858",
"T 	c #585141",
"U 	c #E2D0AC",
"V 	c #DFCDAB",
"W 	c #8D826C",
"X 	c #4D473B",
"Y 	c #C5BCA9",
"Z 	c #56534E",
"` 	c #6F6F6F",
" .	c #C3C3C3",
"..	c #5B5B5B",
"+.	c #111111",
"@.	c #999999",
"#.	c #EDEDED",
"$.	c #C6C6C6",
"%.	c #212121",
"&.	c #D8D8D8",
"*.	c #FCFCFC",
"=.	c #C8C8C8",
"-.	c #EEEEEE",
";.	c #F2F2F2",
">.	c #E8E8E8",
",.	c #989898",
"'.	c #2E2E2E",
").	c #B7B7B7",
"!.	c #E7E7E7",
"~.	c #D9D9D9",
"{.	c #A4A4A4",
"].	c #777777",
"^.	c #B4B4B4",
"/.	c #8E8E8E",
"(.	c #DCDCDC",
"_.	c #F0F0F0",
":.	c #EFEFEF",
"<.	c #E4E4E4",
"[.	c #C4C4C4",
"}.	c #CBCBCB",
"|.	c #D3D3D3",
"1.	c #6D6D6D",
"2.	c #A2A2A2",
"3.	c #B8B8B8",
"4.	c #DFDFDF",
"5.	c #DBDBDB",
"6.	c #D5D5D5",
"7.	c #A5A5A5",
"8.	c #676767",
"9.	c #CECECE",
"0.	c #666666",
"a.	c #B6B6B6",
"b.	c #D6D6D6",
"c.	c #CACACA",
"d.	c #4D4D4D",
"e.	c #CCCCCC",
"f.	c #A3A3A3",
"g.	c #575757",
"h.	c #C0C0C0",
"i.	c #121212",
"j.	c #787878",
"k.	c #AAAAAA",
"l.	c #7B7B7B",
"m.	c #606060",
"n.	c #252525",
"o.	c #202020",
"                                                ",
"                  . + @ # $                     ",
"              % & * = - ; > , '                 ",
"            ) ! ~ { ] ^ / ( _ : <               ",
"          [ ! } | ~ 1 2 3 4 5 6 7 $             ",
"  8 8 8 9 0 ~ a b c 1 d e f g h i j k 8 8 8 8   ",
"  8 8 l m n o p b q r s t f u v w x y z q 8 8   ",
"  8 A 8 B C D | E c F G H I J K L M N O 8 A 8   ",
"  8 A c P Q R & o E S 8 T U V W X Y Z 8 c A 8   ",
"  8 A c ` C p ~ { }  ...+.@.#.| O $.%.&.c A 8   ",
"  8 A *.m =.-.p ~ ~ ;.>.,.'.).!.~.{.].O c A 8   ",
"  8 A l ^./.C (._._.:.<.| ).[.}.|.1.2.z q A 8   ",
"  8 A A #.].3.1 !.z 4./.>.1 5.6.7.8.9.{ l A 8   ",
"  8 A A *.5.0.a.9.b.c.d.&.e.c.f.g.h.a *.A A 8   ",
"  8 A A A b ] i.j.k.$.$.[.f.1.8.8 !.b A A A 8 @.",
"  8 A A A A 8 C F l.m.n.o.].2.9.a 8 A A A A 8 @.",
"  8 A A A 8 A *.{ z O &.&.O z { *.A 8 A A A 8 @.",
"  8 A A 8 A A A A l *.c c *.l A A A A 8 A A 8 @.",
"  8 A 8 A A A A A A A A A A A A A A A A 8 A 8 @.",
"  8 8 A A A A A A A A A A A A A A A A A A 8 8 @.",
"  8 8 8 8 8 8 8 8 8 8 8 8 8 8 8 8 8 8 8 8 8 8   ",
"@.@.@.@.@.@.@.@.@.@.@.@.@.@.@.@.@.@.@.@.@.@.@.  ",
"@.@.@.@.@.@.@.@.@.@.@.@.@.@.@.@.@.@.@.@.@.@.@.  ",
"                                                "};
