/* XPM */
static char * spoiler_char_xpm[] = {
"24 24 237 2",
"  	c None",
". 	c #000000",
"+ 	c #0E0E0E",
"@ 	c #1D1D1D",
"# 	c #383838",
"$ 	c #929292",
"% 	c #9A9A9A",
"& 	c #909090",
"* 	c #767676",
"= 	c #363636",
"- 	c #797979",
"; 	c #B1B1B1",
"> 	c #8D8D8D",
", 	c #6E6E6E",
"' 	c #6D6D6D",
") 	c #686868",
"! 	c #1F1F1F",
"~ 	c #606060",
"{ 	c #C0C0C0",
"] 	c #868686",
"^ 	c #6A6A6A",
"/ 	c #676767",
"( 	c #555555",
"_ 	c #424242",
": 	c #0F0F0F",
"< 	c #999999",
"[ 	c #4D4D4D",
"} 	c #545454",
"| 	c #212121",
"1 	c #474747",
"2 	c #7D7D7D",
"3 	c #464646",
"4 	c #353535",
"5 	c #4A4A4A",
"6 	c #C8C8C8",
"7 	c #5F5F5F",
"8 	c #3A3A3A",
"9 	c #060606",
"0 	c #666660",
"a 	c #A5A5A5",
"b 	c #343434",
"c 	c #292929",
"d 	c #2F2F2F",
"e 	c #636253",
"f 	c #B9B26A",
"g 	c #F3E453",
"h 	c #CAC16B",
"i 	c #C6C6C6",
"j 	c #2A2A2A",
"k 	c #525139",
"l 	c #5F5D29",
"m 	c #11100A",
"n 	c #A0A09B",
"o 	c #BEBEBE",
"p 	c #2E2E2E",
"q 	c #98903C",
"r 	c #F5EA6F",
"s 	c #FAF39E",
"t 	c #CDC8AB",
"u 	c #D1D1D1",
"v 	c #554C31",
"w 	c #E8DF5B",
"x 	c #22210C",
"y 	c #111008",
"z 	c #D8CD46",
"A 	c #C9C497",
"B 	c #BDBDBD",
"C 	c #2D2D2D",
"D 	c #9F9E87",
"E 	c #FFFDCF",
"F 	c #FFFCC5",
"G 	c #B29B68",
"H 	c #86827C",
"I 	c #484848",
"J 	c #6B481E",
"K 	c #F2E456",
"L 	c #3F3E17",
"M 	c #030301",
"N 	c #0E0D01",
"O 	c #706A57",
"P 	c #BCBCBC",
"Q 	c #1E1E1E",
"R 	c #8B7D59",
"S 	c #FFFCB8",
"T 	c #FFFCB1",
"U 	c #FFFBA5",
"V 	c #E5D16E",
"W 	c #E5D061",
"X 	c #E0B538",
"Y 	c #D7970C",
"Z 	c #392900",
"` 	c #494949",
" .	c #838383",
"..	c #E1E1E1",
"+.	c #D8D8D8",
"@.	c #2B2B2B",
"#.	c #54493C",
"$.	c #604B30",
"%.	c #BB9F57",
"&.	c #FFFBA2",
"*.	c #FFFB9D",
"=.	c #F7E478",
"-.	c #E9B93C",
";.	c #D98E08",
">.	c #CC7300",
",.	c #CF8900",
"'.	c #3B2C00",
").	c #696969",
"!.	c #969696",
"~.	c #C9C9C9",
"{.	c #CCCCCC",
"].	c #DBDBDB",
"^.	c #D5D5D5",
"/.	c #D6D6D6",
"(.	c #DEDEDE",
"_.	c #998A40",
":.	c #EDC551",
"<.	c #E5AC2E",
"[.	c #E4A609",
"}.	c #D79D00",
"|.	c #CB9900",
"1.	c #E09C00",
"2.	c #D48100",
"3.	c #DA9000",
"4.	c #F5F5F5",
"5.	c #D0D0D0",
"6.	c #747474",
"7.	c #B6B6B6",
"8.	c #DCDCDC",
"9.	c #DDDDDD",
"0.	c #DFDFDF",
"a.	c #E0E0E0",
"b.	c #E5E5E5",
"c.	c #E4E4E4",
"d.	c #9C8B14",
"e.	c #FBDF00",
"f.	c #9A8300",
"g.	c #0A0500",
"h.	c #C59508",
"i.	c #D88A00",
"j.	c #DD9400",
"k.	c #3D3D3D",
"l.	c #F9F9F9",
"m.	c #F2F2F2",
"n.	c #ACACAC",
"o.	c #9D9D9D",
"p.	c #858585",
"q.	c #E6E6E6",
"r.	c #E8E8E8",
"s.	c #E9E9E9",
"t.	c #EAEAEA",
"u.	c #EEEEEE",
"v.	c #EDEDED",
"w.	c #4F4F4F",
"x.	c #5E5300",
"y.	c #1E1100",
"z.	c #CA9F14",
"A.	c #D98C00",
"B.	c #DC9300",
"C.	c #F0F0F0",
"D.	c #C3C3C3",
"E.	c #EFEFEF",
"F.	c #F1F1F1",
"G.	c #F3F3F3",
"H.	c #F7F7F7",
"I.	c #FFFFFF",
"J.	c #433900",
"K.	c #9D8A25",
"L.	c #E6AB04",
"M.	c #D48200",
"N.	c #D98F00",
"O.	c #F6F6F6",
"P.	c #F8F8F8",
"Q.	c #FAFAFA",
"R.	c #FBFBFB",
"S.	c #FEFEFE",
"T.	c #C5C5C5",
"U.	c #3D3400",
"V.	c #1F1100",
"W.	c #C5A91B",
"X.	c #DD9600",
"Y.	c #C97000",
"Z.	c #D69400",
"`.	c #D3D3D3",
" +	c #D2D2D2",
".+	c #D7D7D7",
"++	c #FCFCFC",
"@+	c #B7B7B7",
"#+	c #ADADAD",
"$+	c #B8B8B8",
"%+	c #1A1A1A",
"&+	c #9D7D00",
"*+	c #D69E05",
"=+	c #D28000",
"-+	c #DC9A00",
";+	c #AE8000",
">+	c #7C7C7C",
",+	c #CFCFCF",
"'+	c #CECECE",
")+	c #CDCDCD",
"!+	c #B2B2B2",
"~+	c #A7A7A7",
"{+	c #AFAFAF",
"]+	c #B0B0B0",
"^+	c #BBBBBB",
"/+	c #4E4E4E",
"(+	c #9F7800",
"_+	c #D79E00",
":+	c #936F00",
"<+	c #2C2100",
"[+	c #808080",
"}+	c #CBCBCB",
"|+	c #959595",
"1+	c #AAAAAA",
"2+	c #A9A9A9",
"3+	c #A8A8A8",
"4+	c #828282",
"5+	c #191300",
"6+	c #C7C7C7",
"7+	c #C2C2C2",
"8+	c #A2A2A2",
"9+	c #A1A1A1",
"0+	c #A0A0A0",
"a+	c #B5B5B5",
"b+	c #BFBFBF",
"c+	c #7A7A7A",
"d+	c #9B9B9B",
"e+	c #9F9F9F",
"f+	c #595959",
"g+	c #8C8C8C",
"h+	c #949494",
"i+	c #8E8E8E",
"j+	c #434343",
"k+	c #818181",
"l+	c #1C1C1C",
"m+	c #0C0C0C",
"n+	c #151515",
"                                . + @ . .       ",
"                            . # $ % & * = .     ",
"                          . - ; > - , ' ) !     ",
"                        . ~ { ] ^ / / / ( _ .   ",
"                        : { < [ } | 1 2 3 4 .   ",
"                        5 6 7 8 9 . 0 a b c .   ",
"                      . ' { d e f g h i j k l . ",
"                      m n o p q r s t u c v w x ",
"                    y z A B C D E F G H I J K L ",
"                  . M N O P Q R S T U V W X Y Z ",
"        . . + `  .B ..+.@.#.$.%.&.*.=.-.;.>.,.'.",
"    C ).!.~.{...].^./.].(.C _.:.<.[.}.|.1.2.3.'.",
"  . (.4.5.6. .7.8.9.0.a.b.c.p d.e.f.. g.h.i.j.'.",
"  k.l.4.m.n.o.p.^.q.r.s.t.u.v.w.x.. . y.z.A.B.'.",
". < C.t.s.4.D.v.u.E.C.F.G.H.I.I.7 J.g.K.L.M.N.'.",
". 9.c.].+...H.O.H.P.Q.R.S.P.0.T.a U.V.W.X.Y.Z.'.",
"@.c./.`. +5..+++S.I.b.{.@+a #+$+D.%+&+*+=+-+;+. ",
". >+ +,+'+)+)+@+!+~+~+{+; ]+]+]+^+/+(+_+:+<+.   ",
"  . [+{.}+~.~.a |+1+2+2+2+2+3+3+@+4+5+. .       ",
"    . 2 6+i 7+< < 8+8+9+9+9+0+a a+b+.           ",
"      . c+7+{ < |+% % < < d+9+e+] f+.           ",
"        . c+b+g+$ h+!.i+) j+Q . .               ",
"          . k+] ) _ l+. .                       ",
"            m+n+.                               "};
