/* XPM */
static char * supersede_xpm[] = {
"24 24 127 2",
"  	c None",
". 	c #000000",
"+ 	c #FEFEFE",
"@ 	c #FDFDFD",
"# 	c #E0E0E0",
"$ 	c #C1C1C1",
"% 	c #3B2929",
"& 	c #2C1E1D",
"* 	c #5A5A5A",
"= 	c #F1F1F1",
"- 	c #E2E2E2",
"; 	c #242424",
"> 	c #392120",
", 	c #2B1817",
"' 	c #C3C3C3",
") 	c #FBFBFB",
"! 	c #A8A8A8",
"~ 	c #593C3B",
"{ 	c #EF7C7A",
"] 	c #F15756",
"^ 	c #5B1817",
"/ 	c #2D2D2D",
"( 	c #8F504F",
"_ 	c #E66563",
": 	c #E54947",
"< 	c #2A0A09",
"[ 	c #ADADAD",
"} 	c #767676",
"| 	c #5D5D5D",
"1 	c #404040",
"2 	c #664140",
"3 	c #F24544",
"4 	c #F2403E",
"5 	c #F13F3E",
"6 	c #591616",
"7 	c #8E4B4A",
"8 	c #E35F5D",
"9 	c #E13533",
"0 	c #DD3230",
"a 	c #360C0B",
"b 	c #F0F0F0",
"c 	c #858585",
"d 	c #4B4B49",
"e 	c #161616",
"f 	c #0E0808",
"g 	c #C33736",
"h 	c #EE3C3B",
"i 	c #E93A38",
"j 	c #E53736",
"k 	c #E04B49",
"l 	c #D82F2D",
"m 	c #851C1B",
"n 	c #313131",
"o 	c #EFEFEF",
"p 	c #EEEEEE",
"q 	c #C5C5C5",
"r 	c #1D1212",
"s 	c #BA2D2B",
"t 	c #E03432",
"u 	c #DC3230",
"v 	c #D42D2A",
"w 	c #831B19",
"x 	c #2C2C2C",
"y 	c #B8B8B8",
"z 	c #ECECEC",
"A 	c #C4C4C4",
"B 	c #2F2F2F",
"C 	c #8B3A37",
"D 	c #D93532",
"E 	c #D42C2A",
"F 	c #CF2A27",
"G 	c #CC2725",
"H 	c #4A0D0C",
"I 	c #585858",
"J 	c #C0C0C0",
"K 	c #EBEBEB",
"L 	c #EAEAEA",
"M 	c #8A3835",
"N 	c #D84844",
"O 	c #CB2725",
"P 	c #C82522",
"Q 	c #C42220",
"R 	c #C0201D",
"S 	c #460B0A",
"T 	c #474747",
"U 	c #E9E9E9",
"V 	c #E8E8E8",
"W 	c #BFBFBF",
"X 	c #5F2422",
"Y 	c #D5423E",
"Z 	c #CB2724",
"` 	c #C72522",
" .	c #7B1614",
"..	c #9C1A18",
"+.	c #BC1E1B",
"@.	c #B91C18",
"#.	c #B61A16",
"$.	c #210403",
"%.	c #E6E6E6",
"&.	c #E5E5E5",
"*.	c #BEBEBE",
"=.	c #5E1F1D",
"-.	c #C82724",
";.	c #C3221F",
">.	c #781412",
",.	c #2B2B2B",
"'.	c #190F0F",
").	c #931512",
"!.	c #B21814",
"~.	c #AF1612",
"{.	c #200403",
"].	c #E7E7E7",
"^.	c #E4E4E4",
"/.	c #BDBDBD",
"(.	c #55100E",
"_.	c #470B0A",
":.	c #D6D6D6",
"<.	c #B9B9B9",
"[.	c #180F0F",
"}.	c #4C0907",
"|.	c #350605",
"1.	c #464646",
"2.	c #E3E3E3",
"3.	c #BBBBBB",
"4.	c #C2C2C2",
"5.	c #BCBCBC",
"6.	c #A0A0A0",
"                                                ",
"                                                ",
"                                                ",
"                                                ",
"                                                ",
"  . . . . . . .             . . . . . . .       ",
". + + + + @ # $ .         . + + + + @ # $ .     ",
". % & * = - ; > , .       . + = = = = ' ) ! .   ",
"~ { ] ^ * / ( _ : < .     . + = = = = [ } | 1 . ",
"2 3 4 5 6 7 8 9 0 a .     . + = = = b - c d e . ",
"f g h i j k 0 l m n .     . + = o o o o p p q . ",
". r s t u l v w x y .     . + o o p p p p z A . ",
". B C D E F G H I J .     . @ K L L L L L L J . ",
". M N F O P Q R S T .     . @ L L U U U V V W . ",
"X Y Z `  ...+.@.#.$..     . @ V %.%.%.%.%.&.*.. ",
"=.-.;.>.,.'.).!.~.{..     . @ ].].%.&.&.^.^./.. ",
". (._.,.:.<.[.}.|.1..     . @ %.&.^.^.2.2.2.3.. ",
". 4././.5.3.3.3.3.6..     . 4././.5.3.3.3.3.6.. ",
"  . . . . . . . . .         . . . . . . . . .   ",
"                                                ",
"                                                ",
"                                                ",
"                                                ",
"                                                "};
