/* XPM */
static char * XPN_xpm[] = {
"32 32 183 2",
"  	c None",
". 	c #8D8D8D",
"+ 	c #5D5D5D",
"@ 	c #909090",
"# 	c #F2F2F2",
"$ 	c #F1F1F1",
"% 	c #F0F0F0",
"& 	c #EFEFEF",
"* 	c #EDEDED",
"= 	c #EAEAEA",
"- 	c #E7E7E7",
"; 	c #DDDDDD",
"> 	c #D6D6D6",
", 	c #D1D1D1",
"' 	c #C6C6C6",
") 	c #515151",
"! 	c #EEEEEE",
"~ 	c #EBEBEB",
"{ 	c #E8E8E8",
"] 	c #E2E2E2",
"^ 	c #D5D5D5",
"/ 	c #BEBEBE",
"( 	c #545454",
"_ 	c #575757",
": 	c #6B6B6B",
"< 	c #4F4F4F",
"[ 	c #DEDEDE",
"} 	c #E1E1E1",
"| 	c #D8D8D8",
"1 	c #D0D0D0",
"2 	c #555555",
"3 	c #777777",
"4 	c #434343",
"5 	c #DFDFDF",
"6 	c #DCDCDC",
"7 	c #D7D7D7",
"8 	c #C1C1C1",
"9 	c #767676",
"0 	c #858585",
"a 	c #454545",
"b 	c #DADADA",
"c 	c #C0C0C0",
"d 	c #737373",
"e 	c #848484",
"f 	c #464646",
"g 	c #D9D9D9",
"h 	c #D4D4D4",
"i 	c #CCCCCC",
"j 	c #BCBCBC",
"k 	c #C8C8C8",
"l 	c #BDBDBD",
"m 	c #727272",
"n 	c #FBFBFB",
"o 	c #FAFAFA",
"p 	c #F9F9F9",
"q 	c #F7F7F7",
"r 	c #F6F6F6",
"s 	c #F4F4F4",
"t 	c #ECECEC",
"u 	c #E9E9E9",
"v 	c #E5E5E5",
"w 	c #CECECE",
"x 	c #C7C7C7",
"y 	c #6F6F6F",
"z 	c #828282",
"A 	c #999999",
"B 	c #6D6D6D",
"C 	c #838383",
"D 	c #F5F5F5",
"E 	c #F3F3F3",
"F 	c #E6E6E6",
"G 	c #E3E3E3",
"H 	c #DBDBDB",
"I 	c #CFCFCF",
"J 	c #C3C3C3",
"K 	c #BBBBBB",
"L 	c #F8F8F8",
"M 	c #878787",
"N 	c #2C2C2C",
"O 	c #000000",
"P 	c #B2B2B2",
"Q 	c #6A6A6A",
"R 	c #747474",
"S 	c #818181",
"T 	c #8A8A8A",
"U 	c #8F8F8F",
"V 	c #D3D3D3",
"W 	c #C9C9C9",
"X 	c #C2C2C2",
"Y 	c #BABABA",
"Z 	c #797979",
"` 	c #0A0A0A",
" .	c #222222",
"..	c #2D2D2D",
"+.	c #7B7B7B",
"@.	c #919191",
"#.	c #A1A1A1",
"$.	c #7A7A7A",
"%.	c #949494",
"&.	c #696969",
"*.	c #BFBFBF",
"=.	c #7E7E7E",
"-.	c #9D9D9D",
";.	c #0B0B0B",
">.	c #9E9E9E",
",.	c #898989",
"'.	c #9A9A9A",
").	c #C5C5C5",
"!.	c #B8B8B8",
"~.	c #E4E4E4",
"{.	c #8B8B8B",
"].	c #717171",
"^.	c #686868",
"/.	c #9F9F9F",
"(.	c #B5B5B5",
"_.	c #7F7F7F",
":.	c #757575",
"<.	c #A4A4A4",
"[.	c #C4C4C4",
"}.	c #E0E0E0",
"|.	c #AAAAAA",
"1.	c #B9B9B9",
"2.	c #B7B7B7",
"3.	c #B3B3B3",
"4.	c #676767",
"5.	c #7D7D7D",
"6.	c #D2D2D2",
"7.	c #CBCBCB",
"8.	c #B1B1B1",
"9.	c #AFAFAF",
"0.	c #666666",
"a.	c #7C7C7C",
"b.	c #4E4E4E",
"c.	c #B6B6B6",
"d.	c #B0B0B0",
"e.	c #AEAEAE",
"f.	c #646464",
"g.	c #2F2F2F",
"h.	c #ADADAD",
"i.	c #ABABAB",
"j.	c #616161",
"k.	c #CDCDCD",
"l.	c #CACACA",
"m.	c #ACACAC",
"n.	c #A9A9A9",
"o.	c #606060",
"p.	c #787878",
"q.	c #6C6C6C",
"r.	c #B4B4B4",
"s.	c #2B2B2B",
"t.	c #9B9B9B",
"u.	c #A7A7A7",
"v.	c #A6A6A6",
"w.	c #5E5E5E",
"x.	c #252525",
"y.	c #969696",
"z.	c #5B5B5B",
"A.	c #A0A0A0",
"B.	c #9C9C9C",
"C.	c #A5A5A5",
"D.	c #979797",
"E.	c #595959",
"F.	c #6E6E6E",
"G.	c #A2A2A2",
"H.	c #989898",
"I.	c #565656",
"J.	c #A3A3A3",
"K.	c #959595",
"L.	c #939393",
"M.	c #5F5F5F",
"N.	c #5A5A5A",
"O.	c #474747",
"P.	c #707070",
"Q.	c #656565",
"R.	c #636363",
"S.	c #626262",
"T.	c #505050",
"U.	c #4C4C4C",
"V.	c #414141",
"W.	c #3E3E3E",
"X.	c #3B3B3B",
"Y.	c #3C3C3C",
"Z.	c #4A4A4A",
"                                                                ",
". . . . . . . . . . . . . . . . . . . . . . . . . . . . +       ",
"@ # # # # # # # # # $ % & * = # # # $ % & * = - ; > , ' )       ",
"@ # ! ! ! ! ! ! ! ! ! ! ! ! ! ! ! ! ! ! ! ! ~ { ] ; ^ / ( _ : < ",
"@ # ! ! ! ! ! ! ( ! ! ( ! ( ( ( ( ! ( ( ! [ ( } ; | 1 / 2 3 . 4 ",
"@ # ! ! ! ! ! ! ( ( ! ( ! ( ! ! ( ! ( ( ( [ ( 5 6 7 1 8 2 9 0 a ",
"@ # ! ! ! ! ! ! ! ( ( ! ! ( ( ( ( ! ( ! ( [ ( [ b > 1 c 2 d e f ",
"@ $ ! ! ! ! ! ! ( ! ( ( ! ( ! ! ! ! ( ! ( ( ( ; g h i j 2 d 0 f ",
"@ $ ! ! ! ! ! ! ( ! ! ( ! ( ! ! ! ! ( ! [ ( ( b 7 , k l 2 m 0 f ",
"@ $ n n o o p ! q r s s ! # ! ! t u v ] [ [ 6 7 ^ w x / 2 y z f ",
"@ % n A A A A A A A A A A A A A A A A A A A A A A i ' / 2 B C f ",
"@ % o p q q D s E # $ % ! ! ~ = u F G 5 H H | ^ I k J K 2 : C a ",
"@ * L q M N a = c O . P t Q y R S S e T U g > V w W X Y 2 : C a ",
"@ = r D Z ` } Q  .w ..C = y +.@.#.. $.U %.^ ( ( ( k 8 Y 2 &.S f ",
"@ - s E *.B & O =.-.( ;.u R @ >.,.m 9 %.'.V , i W ).c !.2 &.S f ",
"@ ~.# $ % & * * ~ = u { - $.U {.].^.].'./., ( ( ( 8 l (.2 &.S f ",
"@ } % ! ( ( ( ( ( ( ( ( v _.e e _.:.0 /.<.I i x [./ Y (.2 &._.f ",
"@ [ ! t t = u { - F v G }.e T U %.'./.<.|.i ( ( ( 1.2.3.2 4.5.f ",
"@ H t = ( ( ( ( ( ( ( ( ; g | V 6.1 1 7.x x [.c K !.8.9.2 0.5.f ",
"@ b = { { F F ~.G ] } 6 H a.O b.1 O w 3 ).( ( ( ( c.d.e.2 f.a.f ",
"@ g { - ( ( ( ( ( ( ( ( | g.P C O 3 k O X l j Y (.P h.i.2 j.Z f ",
"@ 7 F G } ] ] 5 ; b g > V 1 k.l.k ).J / K ( ( ( ( 9.m.n.2 o.p.f ",
"@ h ; ; O q.j.r.s.5.t.1 k.( ( ( ( ( ( ( (.(.P d.i.u.v.<.2 w.9 f ",
"@ , }.[ [ 5 5 H g h V 1 k.k ).8 j 1.!.!.r.( ( ( ( u.v.<.2 w.:.f ",
"@ w [ H ( ( ( ( ( ( ( ( k 3 O l x.q.y.8.e.9.h.|.u.v.#./.2 z.].f ",
"@ 7.| | 7 g | V 1 i 7.k ).J *.Y 1.r.8.9.|.( ( ( ( A.B.A 2 z.].f ",
"@ k h 6.( ( ( ( ( ( ( ( 8 ( ( ( ( ( ( n.v.v.C.#./.'.A D.2 E.F.f ",
"@ )., I k.1 w l.x [.J c j Y c.d.e.m.n.C.G.G.A.-.A H.D.%.2 I.Q f ",
"@ c W k x x ).X *.l K !.(.3.9.m.|.u.<.J.>.>.-.'.D.K.L.L.2 _ : f ",
"@ -.D.@ T e a.9 y 4.M.N.I.I.2 2 2 2 2 2 2 2 2 2 2 2 2 2 2 z.q.O.",
"      + y $.P.B B q.Q ^.4.0.Q.R.S.o.w.+ z.N.E._ _ I.2 I.E.o.: a ",
"      q.].&.R.w.N.2 T.U.f V.W.X.X.X.X.X.X.X.X.X.X.X.X.Y.W.V.a Z."};
